<svg version="1.0" xmlns="http://www.w3.org/2000/svg" xmlns:xlink="http://www.w3.org/1999/xlink" viewBox="0 0 642 565" xml:space="preserve"><defs><path id="u" d="M359.4 364.5c4 6.3 7.9 12.7 10.3 19.8 2.3 7.1 2.8 15.1-.1 21.9-1.4 3.2-3.7 6.2-6.9 7.4-3.4 1.2-7.4.2-10.3-2-2.9-2.2-4.9-5.4-6.5-8.6.3 5.7 0 11.5-1 17.2-.8 4.5-2.2 9.1-5.6 12.2-5.4 4.8-15.1 3-18.4-3.4 1.1 2.1-2.7 9.4-3.6 11.4-2 4.3-4.7 8.7-8.4 11.9-10.9 9.5-21.9-1.4-23.2-13-1.4-12.5 3-25.7 12-34.6-1.8 1.3-4.4.8-6-.8-1.6-1.6-2.2-3.8-2.3-6-.6-8.8 6.1-17.5 14.8-19.2-7.2-1-11.3-9.4-10.4-16.6.9-7.7 6.3-14.7 13.6-17.5 7.2-2.8 15.9-1.4 21.8 3.7l30.2 16.2z"/></defs><use xlink:href="#u" overflow="visible" fill="#76A5D8"/><clipPath id="v"><use xlink:href="#u" overflow="visible"/></clipPath><g clip-path="url(#v)"><path fill="#718BC6" d="M298.4 461.5c-.8-8.3.8-16.5 3.3-24.5s5.7-15.9 8.9-23.7c5.9-14.6 12.7-29.1 21.3-42.4 4.6-7.2 9.9-13.8 16.2-19.6 1.2-1.1-.6-2.9-1.8-1.8-11.4 10.5-19.5 23.9-26.5 37.5-7.6 14.9-14.2 30.5-19.6 46.4-3.1 9-5.2 18.5-4.3 28 .2 1.7 2.7 1.7 2.5.1z"/></g><g clip-path="url(#v)"><path fill="#718BC6" d="m305.487 419.219 2.927-.657 6.718 29.958-2.928.656z"/></g><g clip-path="url(#v)"><path fill="#718BC6" d="m310.476 407.03 2.928-.656 6.936 30.932-2.928.657z"/></g><g clip-path="url(#v)"><path fill="#718BC6" d="m285.847 396.773 35.83-12.962 1.02 2.821-35.83 12.962z"/></g><g clip-path="url(#v)"><path fill="#718BC6" d="m286.501 390.273 39.12-14.148 1.021 2.821-39.12 14.148z"/></g><path fill="#7E61AA" d="M160 286.5c-12.3-11-22.4-24.2-30.2-38.7-7.7-14.5-13-30.4-15.4-46.6-1.4-9.1-1.8-18.4-1.3-27.6.1-2.4-3.6-2.4-3.8 0-.9 16.8 1.4 33.8 6.3 49.9 5 16 12.6 31.2 22.6 44.7 5.7 7.6 12 14.7 19.1 21 1.9 1.5 4.5-1.1 2.7-2.7z"/><path fill="#7E61AA" d="M130.8 166.6c-6.5 8.8-15.1 13.3-19.4 10.2-4.2-3.1-2.5-12.8 4-21.5 6.5-8.8 19.4-10.2 19.4-10.2s2.5 12.7-4 21.5z"/><path fill="#7E61AA" d="M105 163.9c6.1 5.9 8.8 13.1 6 16.1-2.9 3-10.2.6-16.3-5.3-6.1-5.9-6-16.1-6-16.1s10.1-.6 16.3 5.3zM106.8 192.5c4.3 3.7 6.4 8.4 4.6 10.5-1.8 2.1-6.8.8-11.1-2.9s-4.6-10.5-4.6-10.5 6.7-.8 11.1 2.9zM115.9 243.9c7.5.7 13.3 4.3 13 8-.4 3.7-6.8 6-14.3 5.3-7.5-.7-13-8-13-8s6.8-6 14.3-5.3z"/><path fill="#ED2480" d="M197.9 329.9h-.1c-1.1-.1-1.9-1-1.9-2.1.2-2.8.4-5.5.8-8.1.1-1.1 1.1-1.9 2.2-1.7 1.1.1 1.9 1.1 1.7 2.2-.3 2.5-.6 5.1-.7 7.8-.1 1.1-1 1.9-2 1.9zM312.7 470h-1c-1.1 0-2-.9-2-2s.9-2 2-2c1.4 0 2.9 0 4.3-.1 3.6-.1 7.2-.5 10.7-1 1.1-.2 2.1.6 2.3 1.7.2 1.1-.6 2.1-1.7 2.3-3.7.6-7.5 1-11.2 1.1h-3.4zm-16.4-1.5h-.4c-5.1-.9-10.2-2.3-15.2-4-1-.4-1.6-1.5-1.2-2.5.4-1 1.5-1.6 2.5-1.2 4.8 1.7 9.7 3 14.6 3.9 1.1.2 1.8 1.2 1.6 2.3-.1.8-1 1.5-1.9 1.5zm-29.1-10.1c-.3 0-.6-.1-.9-.2-4.5-2.4-9.1-5.1-13.4-8.1-.9-.6-1.1-1.9-.5-2.8.6-.9 1.9-1.1 2.8-.5 4.2 2.9 8.6 5.6 13 7.9 1 .5 1.4 1.7.9 2.7-.5.6-1.2 1-1.9 1zm-25.4-17.5c-.5 0-.9-.2-1.3-.5-5.2-4.5-8.7-8.3-10.4-10.1-.3-.3-.6-.6-.8-.9-.7-.8-.7-2.1.1-2.8.8-.7 2.1-.7 2.8.1.3.3.5.6.8.9 1.6 1.8 5.1 5.4 10.1 9.8.8.7.9 2 .2 2.8-.4.4-1 .7-1.5.7zM221 418c-.6 0-1.2-.3-1.6-.8-3-4.3-5.7-8.8-8.2-13.4-.5-1-.1-2.2.8-2.7 1-.5 2.2-.1 2.7.8 2.4 4.5 5 8.9 7.9 13 .6.9.4 2.2-.5 2.8-.3.2-.7.3-1.1.3zm-14.4-27.3c-.8 0-1.6-.5-1.9-1.3-1.8-4.8-3.4-9.9-4.7-15-.3-1.1.4-2.2 1.5-2.4 1.1-.3 2.2.4 2.4 1.5 1.2 5 2.8 9.9 4.5 14.5.4 1-.1 2.2-1.2 2.6-.1.1-.3.1-.6.1zm-7.5-29.9c-1 0-1.8-.7-2-1.7-.7-5.1-1.2-10.4-1.4-15.6 0-1.1.8-2 1.9-2.1 1.1 0 2 .8 2.1 1.9.2 5.1.7 10.2 1.4 15.2.2 1.1-.6 2.1-1.7 2.3h-.3zM342.1 465.2c-.8 0-1.6-.5-1.9-1.4-.3-1 .2-2.2 1.3-2.5 2.5-.8 4.9-1.7 7.3-2.7 1-.4 2.2.1 2.6 1.1.4 1-.1 2.2-1.1 2.6-2.5 1.1-5.1 2-7.6 2.9h-.6z"/><g><path fill="#ED2480" d="M380.8 142.8c-1 0-1.9-.8-2-1.8-.1-1.1.7-2.1 1.8-2.2 2.7-.3 5.3-.5 8.1-.7 1.1-.1 2 .8 2.1 1.9.1 1.1-.8 2-1.9 2.1-2.7.1-5.3.4-7.8.7h-.3zM545.3 249c-.8 0-1.6-.5-1.9-1.4-1.7-5.3-3.7-10.6-5.9-15.7-.4-1 0-2.2 1-2.6 1-.4 2.2 0 2.6 1 2.3 5.2 4.3 10.7 6.1 16.1.3 1.1-.2 2.2-1.3 2.5-.2.1-.4.1-.6.1zm-13.7-31.1c-.7 0-1.4-.4-1.7-1-2.8-4.9-5.9-9.6-9.2-14.1-.7-.9-.5-2.1.4-2.8.9-.7 2.1-.5 2.8.4 3.4 4.6 6.5 9.5 9.4 14.5.6 1 .2 2.2-.7 2.7-.3.2-.7.3-1 .3zm-20.1-27.4c-.5 0-1.1-.2-1.5-.6-3.8-4.1-7.8-8-12.1-11.7-.8-.7-.9-2-.2-2.8.7-.8 2-.9 2.8-.2 4.4 3.7 8.5 7.8 12.4 12 .8.8.7 2.1-.1 2.8-.4.3-.8.5-1.3.5zm-25.8-22.2c-.4 0-.8-.1-1.1-.3-4.6-3.1-9.5-6-14.4-8.6-1-.5-1.4-1.7-.8-2.7.5-1 1.7-1.4 2.7-.8 5.1 2.7 10.1 5.6 14.8 8.8.9.6 1.2 1.9.5 2.8-.4.5-1.1.8-1.7.8zm-30.1-15.7c-.2 0-.5 0-.7-.1-5.2-2-10.6-3.7-16-5.2-1.1-.3-1.7-1.4-1.4-2.4.3-1.1 1.4-1.7 2.4-1.4 5.6 1.5 11.1 3.3 16.4 5.3 1 .4 1.5 1.6 1.1 2.6-.3.7-1 1.2-1.8 1.2zm-32.9-8.7h-.3c-5.5-.9-11.1-1.4-16.7-1.7-1.1-.1-2-1-1.9-2.1.1-1.1 1-1.9 2.1-1.9 5.7.3 11.5.9 17.1 1.8 1.1.2 1.8 1.2 1.7 2.3-.2.9-1 1.6-2 1.6zM550.9 273.4c-1 0-1.8-.7-2-1.7-.4-2.6-.8-5.2-1.4-7.8-.2-1.1.5-2.1 1.6-2.4 1.1-.2 2.1.5 2.4 1.6.5 2.7 1 5.3 1.4 8 .2 1.1-.6 2.1-1.7 2.3h-.3z"/></g><g><defs><path id="w" d="m500.8 222.6-7.6-3.1 9.6-4.2c3.1-10.3 3.6-18.3 3.6-18.3s-34.9-6.3-58 11.6c-5.4 4.2-10.1 8.7-14.1 13.3l.9 12.2-5.3-6.8c-9.9 13.4-13.2 26.9-7.1 34.7 8.9 11.5 34.9 6.3 58-11.6 8.2-6.4 16.2-19.5 20-27.8z"/></defs><use xlink:href="#w" overflow="visible" fill="#EE4993"/><clipPath id="x"><use xlink:href="#w" overflow="visible"/></clipPath><g clip-path="url(#x)"><path fill="#ED1C80" d="m422.185 260.948 87.137-67.636 1.472 1.896-87.137 67.636z"/></g><g clip-path="url(#x)"><path fill="#ED1C80" d="m467.436 228.234.556-2.335 34.635 8.238-.555 2.335z"/></g><g clip-path="url(#x)"><path fill="#ED1C80" d="m459.916 234.163.556-2.335 34.635 8.238-.556 2.335z"/></g><g clip-path="url(#x)"><path fill="#ED1C80" d="m429.417 257.838.555-2.334 34.636 8.237-.556 2.335z"/></g><g clip-path="url(#x)"><path fill="#ED1C80" d="m441.612 208.561 2.375-.35 5.04 34.13-2.374.351z"/></g><g clip-path="url(#x)"><path fill="#ED1C80" d="m445.916 205.258 2.374-.35 5.04 34.13-2.374.351z"/></g><g clip-path="url(#x)"><path fill="#ED1C80" d="m477.115 181.053 2.374-.35 5.04 34.13-2.373.35z"/></g></g><g><defs><path id="y" d="m261.4 360.5 7.4 3.3-9.7 3.9c-3.4 10.2-4.2 18.2-4.2 18.2s34.7 7.5 58.4-9.7c5.5-4 10.4-8.3 14.5-12.8l-.5-12.2 5 7c10.3-13.1 14-26.4 8.2-34.4-8.6-11.8-34.7-7.5-58.4 9.7-8.2 5.9-16.6 18.8-20.7 27z"/></defs><use xlink:href="#y" overflow="visible" fill="#79D1F1"/><clipPath id="z"><use xlink:href="#y" overflow="visible"/></clipPath><g clip-path="url(#z)"><path fill="#76A5D8" d="m250.609 387.48 89.265-64.79 1.41 1.942-89.266 64.79z"/></g><g clip-path="url(#z)"><path fill="#76A5D8" d="m259.93 348.904.63-2.316 34.35 9.349-.63 2.315z"/></g><g clip-path="url(#z)"><path fill="#76A5D8" d="m267.708 343.235.63-2.315 34.351 9.348-.63 2.316z"/></g><g clip-path="url(#z)"><path fill="#76A5D8" d="m298.947 320.61.63-2.317 34.351 9.349-.63 2.316z"/></g><g clip-path="url(#z)"><path fill="#76A5D8" d="m313.752 342.462 2.384-.274 3.937 34.276-2.385.274z"/></g><g clip-path="url(#z)"><path fill="#76A5D8" d="m309.353 345.664 2.384-.274 3.936 34.276-2.384.274z"/></g><g clip-path="url(#z)"><path fill="#76A5D8" d="m277.443 368.76 2.385-.274 3.936 34.276-2.384.274z"/></g></g><g><defs><path id="A" d="M437.8 177.5c8-2.3 13.6-11.2 12-19.4-.4-2.3-1.4-4.5-3.3-5.9-1.9-1.4-4.7-1.5-6.3.2 1.1-3.7 1.2-8-1-11.2-2.2-3.2-7.2-4.6-10.1-2 .6-5 1.2-10.3-.3-15.1-1.5-4.8-5.9-9.2-11-9-4.5.2-8.2 3.7-10.5 7.6-4.5 7.7-5 17.7-1.3 25.9-3.4-3-9.1-1.8-11.9 1.6-2.8 3.5-3.2 8.5-2 12.8 1.2 4.3 3.8 8.1 6.3 11.8-4-1.4-8.4 2.5-8.9 6.8-.5 4.2 1.7 8.3 4.3 11.7l4 31.5 35.8-18.6 4.2-28.7z"/></defs><use xlink:href="#A" overflow="visible" fill="#F5982D"/><clipPath id="B"><use xlink:href="#A" overflow="visible"/></clipPath><g clip-path="url(#B)"><path fill="#F4792C" d="M416.9 111.1c-2.9 15-1 30.3.9 45.3 1 7.6 2 15.3 2.4 23 .4 7.6.3 15.3-.5 22.8-.9 8.6-2.5 17.2-4.9 25.5-.2.8 1 1.1 1.2.3 4.1-14.6 6-29.8 5.6-44.9-.5-15.4-3.6-30.5-4.7-45.9-.6-8.6-.5-17.3 1.1-25.9.2-.7-1-1-1.1-.2z"/></g><g clip-path="url(#B)"><path fill="#F4792C" d="M416.4 130.5c1.4-.4 2.4-1.2 3.5-2.1 1.2-.9 2.3-1.9 3.4-2.9 2.2-2 4.4-4.1 6.3-6.4.5-.6-.4-1.5-.9-.9-1.9 2.1-3.9 4.2-6 6.1-1 .9-2.1 1.8-3.2 2.7-1.1.9-2.2 1.9-3.6 2.3-.6.2-.3 1.4.5 1.2z"/></g><g clip-path="url(#B)"><path fill="#F4792C" d="M416.7 137c7.4-2.7 13.7-7.5 18.3-13.9.5-.7-.6-1.3-1.1-.6-4.3 6.1-10.5 10.8-17.5 13.3-.8.3-.4 1.5.3 1.2z"/></g><g clip-path="url(#B)"><path fill="#F4792C" d="M419.4 161.8c9.8-4.5 17.3-12.8 22.3-22.2.4-.7-.7-1.3-1.1-.6-4.9 9.2-12.2 17.4-21.8 21.8-.7.3-.1 1.4.6 1z"/></g><g clip-path="url(#B)"><path fill="#F4792C" d="M394.4 149.1c5.4 11.5 14.5 21.1 25.8 27.1.7.4 1.3-.7.6-1.1-11.1-5.9-20-15.3-25.3-26.6-.4-.8-1.4-.1-1.1.6z"/></g><g clip-path="url(#B)"><path fill="#F4792C" d="M390.8 152.1c6.3 13.1 16.9 24 29.9 30.7.7.4 1.3-.7.6-1.1-12.8-6.6-23.2-17.3-29.4-30.2-.4-.8-1.5-.2-1.1.6z"/></g></g><g><defs><path id="C" d="M378.3 237.1c-1.4-10.6 4.2-21.9 13.6-27 5.2-2.9 11.2-3.9 17-5.5 5.8-1.5 11.7-3.8 15.5-8.3 4.6-5.5 5.4-13.3 8.9-19.6 3.7-6.6 10.3-11.3 17.6-13.5 7.3-2.2 15.6-1.3 23 .3-7.5 1.7-13.2 9.1-12.9 16.8.2 3.8 1.6 7.5 2.3 11.3.6 3.8.3 7.7-.6 11.5-.6 2.5-1.5 4.9-3 6.9-2 2.5-4.8 4.1-6.9 6.5-4.9 5.7-4 14.2-4.7 21.8-1.1 11.4-6.7 22.4-15.5 29.7s-20.6 11-32 9.7l-22.3-40.6z"/></defs><use xlink:href="#C" overflow="visible" fill="#F4B027"/><clipPath id="D"><use xlink:href="#C" overflow="visible"/></clipPath><g clip-path="url(#D)"><path fill="#F5982D" d="M482.7 163.1c-11.4-2-22.8 3.7-29.7 12.7-3.4 4.4-5.7 9.5-7.3 14.7-1.5 5.4-2.1 11.1-3.6 16.5-.7 2.7-1.7 5.4-3.2 7.8-1.5 2.5-3.4 4.8-5.6 6.7-4.4 3.9-9.6 6.6-15 9-6.1 2.7-12.4 4.9-18.2 8.2-5.5 3.1-10.3 7.4-14.3 12.3-7 8.7-11.6 19.3-13 30.4-.2 1.4-.3 2.8-.4 4.2 0 .5.8.7.8.1.7-11.1 4.5-22 10.9-31.1 3.5-5 7.9-9.6 13-13 5.5-3.8 11.7-6.2 17.8-8.7 10.3-4.3 21.4-9.6 26.1-20.4 2.2-5.1 3-10.6 4.1-15.9 1.1-5.5 2.7-10.8 5.5-15.7 2.8-4.9 6.6-9.3 11.3-12.4 4.8-3.2 10.5-5.1 16.3-5 1.5 0 2.9.1 4.3.4.6.1.8-.7.2-.8z"/><path fill="#F5982D" d="M448.1 186c2.8-.2 5.6-.6 8.4-1.3 2.7-.7 5.4-1.6 8-2.7 1.5-.7 2.9-1.4 4.3-2.2.2-.1.2-.4.1-.6-.1-.2-.4-.2-.6-.1-2.4 1.4-4.9 2.5-7.6 3.5-2.6.9-5.3 1.6-8 2-1.6.2-3.1.4-4.7.5-.5.1-.4 1 .1.9zM446.3 191.6c3.1-.1 6.3-.3 9.4-.5 3.1-.3 6.2-.7 9.3-1.5 1.7-.4 3.4-.9 5-1.5.5-.2.2-1-.3-.8-2.9 1.1-5.9 1.8-8.9 2.3-3.1.5-6.2.8-9.3.9-1.8.1-3.5.2-5.3.2-.6.1-.5.9.1.9zM436.2 220.3c3.1 1.4 6.3 2.4 9.6 2.9 3.3.6 6.7.8 10.1.5 1.9-.1 3.8-.4 5.6-.8.2 0 .4-.2.4-.5 0-.2-.2-.4-.5-.4-3.2.7-6.6 1-9.9.9-3.3-.1-6.6-.6-9.8-1.6-1.8-.5-3.5-1.2-5.2-1.9-.5-.1-.8.7-.3.9zM428.5 226.6c2.7 2.4 5.9 4.2 9.3 5.4 3.6 1.4 7.4 2.2 11.2 2.7 2.2.3 4.4.5 6.7.7.2 0 .4-.1.5-.3 0-.2-.1-.5-.3-.5-3.9-.3-7.8-.8-11.6-1.6-3.5-.8-7-2-10.2-3.7-1.7-1-3.4-2.1-4.9-3.4-.5-.3-1.1.4-.7.7zM401.4 203c-.6 4.4-1.1 8.9-1 13.4.1 4.4.7 9 2.4 13.1 1 2.3 2.3 4.5 4 6.4.2.2.4.2.6.1.2-.1.2-.4.1-.6-2.9-3.3-4.7-7.3-5.6-11.6-.9-4.4-.9-8.9-.5-13.3.2-2.4.5-4.9.8-7.3.1-.6-.7-.8-.8-.2zM390.3 207.8c0 4.6.3 9.2 1.1 13.8.8 4.2 2 8.4 4 12.2 1.1 2 2.5 3.9 4.3 5.5.4.4.9-.3.5-.7-3.1-2.7-5-6.5-6.3-10.3-1.4-4.1-2.2-8.5-2.5-12.8-.2-2.6-.3-5.1-.3-7.7 0-.2-.2-.4-.5-.4-.2-.1-.3.1-.3.4zM417.3 197.5c1.1 4.3 2.6 8.4 4.6 12.3 1 1.9 2 3.7 3.2 5.5 1 1.5 2.1 2.9 3.3 4.1 1.4 1.4 3.1 2.4 5 3 .2.1.5-.1.5-.3 0-.2-.1-.4-.3-.5-3.3-.9-5.7-3.6-7.5-6.3-2.3-3.4-4.2-7.2-5.7-11.1-.9-2.2-1.6-4.6-2.2-6.9-.1-.2-.4-.3-.5-.2-.4-.1-.4.1-.4.4z"/></g></g><path fill="#7E61AA" d="M568.4 250.8H335.8c-4.1 0-7.4 3.3-7.4 7.4v198.7c0 4.1 3.3 7.4 7.4 7.4h232.5c4.1 0 7.4-3.3 7.4-7.4V258.2c0-4.1-3.3-7.4-7.3-7.4z"/><path fill="#F170AB" d="M394.2 112.8H161.6c-4.1 0-7.4 3.3-7.4 7.4v198.7c0 4.1 3.3 7.4 7.4 7.4h232.5c4.1 0 7.4-3.3 7.4-7.4V120.2c.1-4.1-3.3-7.4-7.3-7.4z"/><g><path fill="#FFF" d="M381.2 338.2H148.6c-4.1 0-7.4-3.3-7.4-7.4v-191h247.3v191c.1 4.1-3.3 7.4-7.3 7.4z"/><path fill="#ED1C80" d="M388.6 139.9H141.3v-7.7c0-4.1 3.3-7.4 7.4-7.4h232.5c4.1 0 7.4 3.3 7.4 7.4v7.7z"/><g fill="#F170AB"><path d="M155.8 132.3c0 1.9-1.5 3.4-3.4 3.4s-3.4-1.5-3.4-3.4 1.5-3.4 3.4-3.4c1.9.1 3.4 1.6 3.4 3.4zM169.7 132.3c0 1.9-1.5 3.4-3.4 3.4s-3.4-1.5-3.4-3.4 1.5-3.4 3.4-3.4c1.9.1 3.4 1.6 3.4 3.4zM183.5 132.3c0 1.9-1.5 3.4-3.4 3.4s-3.4-1.5-3.4-3.4 1.5-3.4 3.4-3.4c1.9.1 3.4 1.6 3.4 3.4z"/></g><defs><path id="E" d="M376.8 245H153c-2.2 0-3.9-1.8-3.9-3.9v-90c0-2.2 1.8-3.9 3.9-3.9h223.9c2.2 0 3.9 1.8 3.9 3.9v90c0 2.2-1.8 3.9-4 3.9z"/></defs><use xlink:href="#E" overflow="visible" fill="#F0E6F2"/><clipPath id="F"><use xlink:href="#E" overflow="visible"/></clipPath><g clip-path="url(#F)"><path fill="#B295C6" d="M270.5 170.2c0-4.2-3.4-7.5-7.5-7.5-1.1 0-2.2.2-3.1.7-1.4-2.3-3.9-3.8-6.8-3.8-4.2 0-7.7 3.3-7.9 7.5h-.3c-2.9 0-5.4 2.4-5.4 5.4 0 2.9 2.4 5.4 5.4 5.4h19.3c2-.2 6.3-1 6.3-7.7z"/><path fill="#D1BBDB" d="M201.8 204.8c-1.7-.4-2.6.9-2.6 2.1 0 1.2.9 2.1 2.1 2.1h17.9c1.8 0 3.2-1.5 3.2-3.2s-1.5-3.2-3.2-3.2h-.4v-.1c0-3.5-2.9-6.4-6.4-6.4-2.8 0-5.2 1.8-6.1 4.3-.6-.3-1.3-.4-2-.4-.9 0-1.9.2-2.7.7-1 .6-1.4 1.7-1.5 2.8 0 .6.1 1.3.4 1.8l1.3-.5zM260.5 177.7c-1.7-.4-2.7 1-2.7 2.2 0 1.2 1 2.2 2.2 2.2H278.6c1.9 0 3.4-1.5 3.4-3.4s-1.5-3.4-3.4-3.4h-.4v-.1c0-3.7-3-6.7-6.7-6.7-2.9 0-5.4 1.9-6.3 4.5-.6-.3-1.3-.5-2-.5-1 0-2 .2-2.8.7-1 .6-1.5 1.8-1.5 2.9 0 .7.1 1.4.5 1.9l1.1-.3z"/></g><g clip-path="url(#F)"><path fill="#ED1C80" d="M354.7 164.7 289.5 245h135.1l-65.2-80.3c-1.2-1.4-3.5-1.4-4.7 0z"/><path fill="#F170AB" d="M283.6 164.7 218.4 245h135.1l-65.2-80.3c-1.2-1.4-3.5-1.4-4.7 0z"/></g><g><path fill="#F2A0C5" d="M152.1 271.8h12.2c1.5 0 2.8-1.1 3.1-2.5.3-1.9-1.2-3.5-3-3.5h-12.2c-1.5 0-2.8 1.1-3.1 2.5-.3 1.9 1.1 3.5 3 3.5zM222.8 271.8h27.8c1.5 0 2.8-1.1 3.1-2.5.3-1.9-1.2-3.5-3-3.5h-27.8c-1.5 0-2.8 1.1-3.1 2.5-.2 1.9 1.2 3.5 3 3.5zM172.6 269.3c.2 1.5 1.6 2.5 3.1 2.5H212c1.5 0 2.8-1.1 3.1-2.5.3-1.9-1.2-3.5-3-3.5h-36.6c-1.8-.1-3.2 1.6-2.9 3.5zM214.4 279.6h-6.2c-1.5 0-2.8 1.1-3.1 2.5-.3 1.9 1.2 3.5 3 3.5h6.3c1.7 0 3-1.4 3-3 0-1.7-1.4-3-3-3zM149 282.6c0 1.7 1.4 3 3 3h44.9c1.7 0 3-1.4 3-3 0-1.7-1.4-3-3-3H152c-1.6 0-3 1.3-3 3zM222.5 282.6c0 1.7 1.4 3 3 3h25.2c1.7 0 3-1.4 3-3 0-1.7-1.4-3-3-3h-25.2c-1.7 0-3 1.3-3 3z"/><path fill="#F170AB" d="M249.7 259.2h-96.5c-2.3 0-4.1-1.8-4.1-4.1s1.8-4.1 4.1-4.1h96.5c2.3 0 4.1 1.8 4.1 4.1s-1.9 4.1-4.1 4.1z"/><g><path fill="#B295C6" d="M377.8 279.6h-12.2c-1.5 0-2.8 1.1-3.1 2.5-.3 1.9 1.2 3.5 3 3.5h12.2c1.5 0 2.8-1.1 3.1-2.5.2-1.9-1.2-3.5-3-3.5zM307 279.6h-27.8c-1.5 0-2.8 1.1-3.1 2.5-.3 1.9 1.2 3.5 3 3.5h27.8c1.5 0 2.8-1.1 3.1-2.5.3-1.9-1.2-3.5-3-3.5zM357.2 282.1c-.2-1.5-1.6-2.5-3.1-2.5h-36.4c-1.5 0-2.8 1.1-3.1 2.5-.3 1.9 1.2 3.5 3 3.5h36.6c1.9 0 3.3-1.6 3-3.5zM315.4 271.8h6.2c1.5 0 2.8-1.1 3.1-2.5.3-1.9-1.2-3.5-3-3.5h-6.3c-1.7 0-3 1.4-3 3s1.4 3 3 3zM380.8 268.8c0-1.7-1.4-3-3-3h-44.9c-1.7 0-3 1.4-3 3 0 1.7 1.4 3 3 3h44.9c1.6 0 3-1.4 3-3zM307.3 268.8c0-1.7-1.4-3-3-3h-25.2c-1.7 0-3 1.4-3 3 0 1.7 1.4 3 3 3h25.2c1.7 0 3-1.4 3-3z"/><path fill="#7E61AA" d="M376.7 259.2h-96.5c-2.3 0-4.1-1.8-4.1-4.1s1.8-4.1 4.1-4.1h96.5c2.3 0 4.1 1.8 4.1 4.1s-1.9 4.1-4.1 4.1z"/></g></g><g><path fill="#7E61AA" d="M318.5 105.3h21.8c2.6 0 5 1.7 5.8 4.2l4.9 15.2h-21.7l-10.8-19.4z"/><path fill="#B295C6" d="m302.1 173.5 17.7-12.9 17.7 12.9v-65.2c0-.2-.1-1.2.6-2 .9-1 2.2-1 2.3-1H305c-1.6 0-2.9 1.3-2.9 2.9v65.3z"/></g><g><path fill="#F2A0C5" d="M263.9 203.7c-.6 0-1.1-.2-1.6-.6-1.1-.9-1.2-2.4-.4-3.5l4.1-5.1c.9-1.1 2.4-1.2 3.5-.4 1.1.9 1.2 2.4.4 3.5l-4.1 5.1c-.5.6-1.2 1-1.9 1zM273.8 191.5c-.6 0-1.1-.2-1.6-.6-1.1-.9-1.2-2.4-.4-3.5l12.6-15.5c.9-1.1 2.4-1.2 3.5-.4 1.1.9 1.2 2.4.4 3.5l-12.6 15.5c-.5.7-1.2 1-1.9 1z"/></g><path fill="#B295C6" d="M251 328.2h-99.2c-1.5 0-2.8-1.2-2.8-2.8V299c0-1.5 1.2-2.8 2.8-2.8H251c1.5 0 2.8 1.2 2.8 2.8v26.4c0 1.5-1.3 2.8-2.8 2.8zM378 328.2h-99.2c-1.5 0-2.8-1.2-2.8-2.8V299c0-1.5 1.2-2.8 2.8-2.8H378c1.5 0 2.8 1.2 2.8 2.8v26.4c0 1.5-1.3 2.8-2.8 2.8z"/><g fill="#C1A9D1"><path d="M170.8 310.1h-7.6c-1.8 0-3.2-1.4-3.2-3.2 0-1.8 1.4-3.2 3.2-3.2h7.6c1.8 0 3.2 1.4 3.2 3.2 0 1.8-1.5 3.2-3.2 3.2zM239.7 310.1h-59.2c-1.8 0-3.2-1.4-3.2-3.2 0-1.8 1.4-3.2 3.2-3.2h59.2c1.8 0 3.2 1.4 3.2 3.2 0 1.8-1.5 3.2-3.2 3.2zM182.6 320.7h-19.4c-1.8 0-3.2-1.4-3.2-3.2 0-1.8 1.4-3.2 3.2-3.2h19.4c1.8 0 3.2 1.4 3.2 3.2 0 1.7-1.4 3.2-3.2 3.2zM239.7 320.7h-32.8c-1.8 0-3.2-1.4-3.2-3.2 0-1.8 1.4-3.2 3.2-3.2h32.8c1.8 0 3.2 1.4 3.2 3.2 0 1.7-1.5 3.2-3.2 3.2zM196.5 320.7h-4.2c-1.8 0-3.2-1.4-3.2-3.2 0-1.8 1.4-3.2 3.2-3.2h4.2c1.8 0 3.2 1.4 3.2 3.2.1 1.7-1.4 3.2-3.2 3.2z"/></g></g><g><path fill="#D7EFF4" d="M580.4 476.2H347.8c-4.1 0-7.4-3.3-7.4-7.4v-191h247.3v191c0 4.1-3.3 7.4-7.3 7.4z"/><path fill="#79D1F1" d="M587.7 277.9H340.5v-7.7c0-4.1 3.3-7.4 7.4-7.4h232.5c4.1 0 7.4 3.3 7.4 7.4v7.7z"/><g fill="#38C6F4"><path d="M355 270.3c0 1.9-1.5 3.4-3.4 3.4s-3.4-1.5-3.4-3.4 1.5-3.4 3.4-3.4 3.4 1.5 3.4 3.4zM368.9 270.3c0 1.9-1.5 3.4-3.4 3.4s-3.4-1.5-3.4-3.4 1.5-3.4 3.4-3.4 3.4 1.5 3.4 3.4zM382.7 270.3c0 1.9-1.5 3.4-3.4 3.4s-3.4-1.5-3.4-3.4 1.5-3.4 3.4-3.4 3.4 1.5 3.4 3.4z"/></g><path fill="#A8DEE9" d="M404.9 476.2H348c-4.1 0-7.5-3.4-7.5-7.5V277.9h64.4v198.3z"/></g><g><path fill="#FFF" d="M381.3 298.7h-29.7c-1.3 0-2.3-1-2.3-2.3 0-1.3 1-2.3 2.3-2.3h29.7c1.3 0 2.3 1 2.3 2.3 0 1.3-1 2.3-2.3 2.3zM393.7 298.7h-5.8c-1.3 0-2.3-1-2.3-2.3 0-1.3 1-2.3 2.3-2.3h5.8c1.3 0 2.3 1 2.3 2.3 0 1.3-1 2.3-2.3 2.3zM393.7 308.3h-42.1c-1.3 0-2.3-1-2.3-2.3 0-1.3 1-2.3 2.3-2.3h42.1c1.3 0 2.3 1 2.3 2.3 0 1.3-1 2.3-2.3 2.3zM367.6 329.1h-16c-1.3 0-2.3-1-2.3-2.3 0-1.3 1-2.3 2.3-2.3h16c1.3 0 2.3 1 2.3 2.3 0 1.2-1.1 2.3-2.3 2.3zM393.7 329.1h-20.4c-1.3 0-2.3-1-2.3-2.3 0-1.3 1-2.3 2.3-2.3h20.4c1.3 0 2.3 1 2.3 2.3 0 1.2-1 2.3-2.3 2.3zM393.7 338.7h-42.1c-1.3 0-2.3-1-2.3-2.3s1-2.3 2.3-2.3h42.1c1.3 0 2.3 1 2.3 2.3s-1 2.3-2.3 2.3z"/><g><path fill="#FFF" d="M380 359.4h-28.4c-1.3 0-2.3-1-2.3-2.3 0-1.3 1-2.3 2.3-2.3H380c1.3 0 2.3 1 2.3 2.3 0 1.3-1 2.3-2.3 2.3zM393.7 359.4h-8c-1.3 0-2.3-1-2.3-2.3 0-1.3 1-2.3 2.3-2.3h8c1.3 0 2.3 1 2.3 2.3 0 1.3-1 2.3-2.3 2.3zM393.7 369h-42.1c-1.3 0-2.3-1-2.3-2.3 0-1.3 1-2.3 2.3-2.3h42.1c1.3 0 2.3 1 2.3 2.3 0 1.3-1 2.3-2.3 2.3z"/></g><g><path fill="#FFF" d="M379.1 394.9h14.6c1.3 0 2.3 1 2.3 2.3 0 1.3-1 2.3-2.3 2.3h-14.6c-1.3 0-2.3-1-2.3-2.3 0-1.3 1.1-2.3 2.3-2.3zM351.6 394.9h21.8c1.3 0 2.3 1 2.3 2.3 0 1.3-1 2.3-2.3 2.3h-21.8c-1.3 0-2.3-1-2.3-2.3 0-1.3 1-2.3 2.3-2.3zM351.6 385.2h42.1c1.3 0 2.3 1 2.3 2.3s-1 2.3-2.3 2.3h-42.1c-1.3 0-2.3-1-2.3-2.3s1-2.3 2.3-2.3z"/></g><g><path fill="#FFF" d="M366.2 450.5h-14.6c-1.3 0-2.3-1-2.3-2.3 0-1.3 1-2.3 2.3-2.3h14.6c1.3 0 2.3 1 2.3 2.3 0 1.3-1 2.3-2.3 2.3zM393.7 450.5H372c-1.3 0-2.3-1-2.3-2.3 0-1.3 1-2.3 2.3-2.3h21.8c1.3 0 2.3 1 2.3 2.3-.1 1.3-1.1 2.3-2.4 2.3zM393.7 460.1h-42.1c-1.3 0-2.3-1-2.3-2.3s1-2.3 2.3-2.3h42.1c1.3 0 2.3 1 2.3 2.3s-1 2.3-2.3 2.3z"/></g><path fill="#FFF" d="M393.3 430.5H352c-1.5 0-2.7-1.2-2.7-2.7v-10.3c0-1.5 1.2-2.7 2.7-2.7h41.4c1.5 0 2.7 1.2 2.7 2.7v10.3c-.1 1.5-1.3 2.7-2.8 2.7z"/></g><g><path fill="#47C2CA" d="M470.4 302.6h-35.3c-2 0-3.6-1.6-3.6-3.6s1.6-3.6 3.6-3.6h35.3c2 0 3.6 1.6 3.6 3.6s-1.6 3.6-3.6 3.6z"/><path fill="#ED1C80" d="M462.6 354.6h-27.5c-2 0-3.6-1.6-3.6-3.6s1.6-3.6 3.6-3.6h27.5c2 0 3.6 1.6 3.6 3.6s-1.6 3.6-3.6 3.6z"/><path fill="#47C2CA" d="M551.2 354.6h-76.7c-2 0-3.6-1.6-3.6-3.6s1.6-3.6 3.6-3.6h76.7c2 0 3.6 1.6 3.6 3.6s-1.6 3.6-3.6 3.6z"/><path fill="#F170AB" d="M468.7 406.7h-33.6c-2 0-3.6-1.6-3.6-3.6s1.6-3.6 3.6-3.6h33.6c2 0 3.6 1.6 3.6 3.6s-1.6 3.6-3.6 3.6z"/><path fill="#47C2CA" d="M540.4 406.7h-61.5c-2 0-3.6-1.6-3.6-3.6s1.6-3.6 3.6-3.6h61.5c2 0 3.6 1.6 3.6 3.6s-1.6 3.6-3.6 3.6zM485.5 328.6h-50.4c-2 0-3.6-1.6-3.6-3.6s1.6-3.6 3.6-3.6h50.4c2 0 3.6 1.6 3.6 3.6s-1.6 3.6-3.6 3.6zM532.5 328.6h-23.2c-2 0-3.6-1.6-3.6-3.6s1.6-3.6 3.6-3.6h23.2c2 0 3.6 1.6 3.6 3.6s-1.6 3.6-3.6 3.6zM470.4 432.7h-35.3c-2 0-3.6-1.6-3.6-3.6s1.6-3.6 3.6-3.6h35.3c2 0 3.6 1.6 3.6 3.6s-1.6 3.6-3.6 3.6z"/><path fill="#775EA8" d="M519.5 432.7h-35.1c-2 0-3.6-1.6-3.6-3.6s1.6-3.6 3.6-3.6h35.1c2 0 3.6 1.6 3.6 3.6s-1.6 3.6-3.6 3.6z"/><path fill="#47C2CA" d="M565.4 432.7h-34.5c-2 0-3.6-1.6-3.6-3.6s1.6-3.6 3.6-3.6h34.5c2 0 3.6 1.6 3.6 3.6s-1.6 3.6-3.6 3.6z"/><path fill="#775EA8" d="M486.1 458.7h-51c-2 0-3.6-1.6-3.6-3.6s1.6-3.6 3.6-3.6h51c2 0 3.6 1.6 3.6 3.6s-1.6 3.6-3.6 3.6z"/><path fill="#F170AB" d="M549.2 458.7h-33.3c-2 0-3.6-1.6-3.6-3.6s1.6-3.6 3.6-3.6h33.3c2 0 3.6 1.6 3.6 3.6s-1.6 3.6-3.6 3.6z"/><g><path fill="#47C2CA" d="M484.4 380.7h-49.3c-2 0-3.6-1.6-3.6-3.6s1.6-3.6 3.6-3.6h49.3c2 0 3.6 1.6 3.6 3.6 0 1.9-1.6 3.6-3.6 3.6z"/><path fill="#ED1C80" d="M521.6 380.7h-23.2c-2 0-3.6-1.6-3.6-3.6s1.6-3.6 3.6-3.6h23.2c2 0 3.6 1.6 3.6 3.6 0 1.9-1.6 3.6-3.6 3.6z"/></g><circle fill="#F170AB" cx="423.5" cy="299" r="3.6"/><circle fill="#ED1C80" cx="423.5" cy="325" r="3.6"/><circle fill="#F170AB" cx="498.4" cy="325" r="3.6"/><circle fill="#47C2CA" cx="423.5" cy="351" r="3.6"/><circle fill="#47C2CA" cx="423.5" cy="377" r="3.6"/><circle fill="#47C2CA" cx="536.1" cy="377" r="3.6"/><circle fill="#ED1C80" cx="423.5" cy="403" r="3.6"/><circle fill="#47C2CA" cx="423.5" cy="429" r="3.6"/><circle fill="#47C2CA" cx="423.5" cy="455" r="3.6"/><circle fill="#47C2CA" cx="500.9" cy="455" r="3.6"/></g><path fill="#7E61AA" d="M139.6 227.3c-10.3 3.6-20 2.5-21.8-2.5-1.8-5 5.1-11.9 15.4-15.6 10.3-3.6 21.8 2.5 21.8 2.5s-5.2 12-15.4 15.6z"/></svg>