<svg version="1.0" xmlns="http://www.w3.org/2000/svg" xmlns:xlink="http://www.w3.org/1999/xlink" viewBox="0 0 642 565" xml:space="preserve"><defs><path id="i" d="m107.3 140-4.7 5.4-.8-9.1c-7.7-5.4-14.2-8.1-14.2-8.1s-15.1 27.2-6.6 51.4c2 5.6 4.4 10.8 7.1 15.4l10.4 2.7-7.1 2.5c8.4 12 18.6 18.5 26.8 15.6 12.1-4.2 15.1-27.2 6.6-51.4-3-8.6-11.7-18.9-17.5-24.4z"/></defs><use xlink:href="#i" overflow="visible" fill="#F49BC2"/><clipPath id="j"><use xlink:href="#i" overflow="visible"/></clipPath><g clip-path="url(#j)"><path fill="#F174AC" d="m85.386 124.828 1.984-.69 31.742 91.238-1.983.69z"/></g><g clip-path="url(#j)"><path fill="#F174AC" d="m100.897 168.165 16.54-26.455 1.78 1.114-16.539 26.454z"/></g><g clip-path="url(#j)"><path fill="#F174AC" d="m103.616 176.133 16.542-26.455 1.78 1.113-16.542 26.455z"/></g><g clip-path="url(#j)"><path fill="#F174AC" d="m114.738 208.128 16.54-26.455 1.78 1.114-16.539 26.454z"/></g><g clip-path="url(#j)"><path fill="#F174AC" d="m79.105 185.242.373-2.067 29.72 5.367-.374 2.066z"/></g><g clip-path="url(#j)"><path fill="#F174AC" d="m77.524 180.791.373-2.066 29.72 5.366-.374 2.067z"/></g><g clip-path="url(#j)"><path fill="#F174AC" d="m66.135 148.06.373-2.066 29.72 5.366-.373 2.067z"/></g><defs><path id="k" d="M123.8 259.7c-14.6 4-30.4-.9-42.9-9.5-5.2-3.6-10.5-9.5-8.3-15.4 1.3-3.5 4.9-5.7 8.6-6.2 3.7-.6 7.4.3 11 1.1-8.8-4.9-14.8-13.7-19.2-22.8-2.3-4.8-4.4-9.9-4.4-15.2 0-5.3 2.4-10.9 7.1-13.4 5.4-2.9 12.3-.9 16.9 3.1 4.5 4.1 7.2 9.8 9.4 15.5-.1-3.7 4.7-6.1 8.2-4.9 3.5 1.3 5.7 4.8 7.1 8.3 1.4 3.7 2.2 7.7 2.2 11.6l4.3 47.8z"/></defs><use xlink:href="#k" overflow="visible" fill="#7E61AA"/><clipPath id="l"><use xlink:href="#k" overflow="visible"/></clipPath><g clip-path="url(#l)"><path fill="#704B9E" d="M74.3 176.7c.8 6.4 1.9 13 4.8 18.8 2.8 5.8 7.2 10.7 11.2 15.6 2 2.4 4.1 4.8 6.3 7 2.3 2.3 4.8 4.4 7.3 6.5 4.8 4.1 8.8 8.9 12.1 14.3 3.6 5.9 6.4 12.2 9 18.6.3.7 1.4.3 1.1-.4-4.5-10.9-9.6-21.9-18-30.3-2.3-2.3-4.8-4.2-7.3-6.3-2.5-2.2-4.8-4.6-7-7.1-4.2-4.8-8.6-9.9-12-15.4-4-6.5-5.3-13.9-6.3-21.4-.1-.7-1.3-.6-1.2.1z"/></g><g clip-path="url(#l)"><path fill="#704B9E" d="M109.5 228c3.7-13.1 3-27.2-1.9-39.9-.3-.7-1.4-.3-1.1.4 4.9 12.5 5.6 26.4 1.9 39.3-.2.7.9.9 1.1.2z"/></g><g clip-path="url(#l)"><path fill="#704B9E" d="M86.1 204.5c2.6-9.2 3.1-18.8 1.4-28.2-.1-.7-1.3-.6-1.2.1 1.6 9.3 1.2 18.8-1.4 27.9-.2.7 1 .9 1.2.2z"/></g><g clip-path="url(#l)"><path fill="#704B9E" d="M83.2 200.2c2.4-9.2 2.7-18.9.9-28.2-.1-.7-1.3-.6-1.2.1 1.8 9.2 1.6 18.8-.8 27.9-.2.7.9.9 1.1.2z"/></g><g clip-path="url(#l)"><path fill="#704B9E" d="M69.9 235.1c11.4 8.1 25.3 12 39.2 12.9 4 .3 7.9.3 11.9.2.7 0 .6-1.2-.1-1.2-13.6.5-27.7-1.3-40.2-7-3.5-1.6-6.9-3.6-10.1-5.8-.6-.4-1.3.4-.7.9z"/></g><g clip-path="url(#l)"><path fill="#704B9E" d="M69.1 230.7c11.2 8.5 25 12.7 38.9 14.1 3.9.4 7.9.5 11.8.5.7 0 .6-1.2-.1-1.2-13.6.1-27.5-2.1-39.8-8.2-3.5-1.7-6.9-3.8-10-6.2-.7-.4-1.4.5-.8 1z"/></g><g><path fill="#ED2480" d="M468.7 176.9c-.9 0-1.7-.6-1.9-1.5-1-4.1-2.3-8.2-3.9-12.3-.4-1 .1-2.2 1.1-2.6 1-.4 2.2.1 2.6 1.1 1.6 4.2 3 8.5 4 12.8.3 1.1-.4 2.2-1.5 2.4-.1 0-.2.1-.4.1zm-10.8-27c-.7 0-1.4-.4-1.7-1-2.6-4.6-5.6-8.9-8.9-12.9-.7-.9-.6-2.1.3-2.8.9-.7 2.1-.6 2.8.3 3.4 4.1 6.5 8.7 9.2 13.4.5 1 .2 2.2-.7 2.7-.3.2-.6.3-1 .3zm-153.5-20.4c-.6 0-1.2-.3-1.6-.8-.7-.9-.5-2.1.4-2.8 4.3-3.3 8.8-6.4 13.5-9.1 1-.6 2.2-.2 2.7.7.6 1 .2 2.2-.7 2.7-4.5 2.6-8.9 5.6-13 8.8-.4.4-.8.5-1.3.5zm133.3-4.2c-.5 0-.9-.2-1.3-.5-3.4-2.9-7.1-5.5-10.9-7.9-.6-.4-1.2-.7-1.9-1.1-1-.5-1.3-1.8-.7-2.7.5-1 1.8-1.3 2.7-.7.7.4 1.3.8 2 1.1 4 2.4 7.9 5.2 11.4 8.2.8.7.9 2 .2 2.8-.4.6-.9.8-1.5.8zm-105.7-12c-.8 0-1.5-.5-1.8-1.2-.4-1 0-2.2 1.1-2.6 5-2.1 10.2-3.9 15.4-5.4 1.1-.3 2.2.3 2.5 1.4.3 1.1-.3 2.2-1.4 2.5-5 1.4-10 3.1-14.8 5.2-.5.1-.8.1-1 .1zm78.1-3.8c-.2 0-.4 0-.7-.1-4.9-1.7-9.9-3-15.1-3.9-1.1-.2-1.8-1.2-1.6-2.3.2-1.1 1.2-1.8 2.3-1.6 5.4.9 10.7 2.3 15.8 4.1 1 .4 1.6 1.5 1.2 2.6-.3.7-1.1 1.2-1.9 1.2zm-47.4-4.6c-1 0-1.8-.7-2-1.7-.1-1.1.6-2.1 1.7-2.2 5.4-.7 10.9-1 16.3-.9 1.1 0 2 .9 2 2s-.9 2-2 2c-5.2-.1-10.4.2-15.7.9-.1-.1-.2-.1-.3-.1z"/></g><g><path fill="#ED2480" d="M139.6 263.8c-.5 0-1-.2-1.4-.6-.8-.8-.8-2 0-2.8 1.9-1.9 3.9-3.8 5.9-5.6.8-.7 2.1-.7 2.8.2.7.8.7 2.1-.2 2.8-2 1.7-3.9 3.6-5.7 5.4-.3.4-.8.6-1.4.6zM169.3 410.4c-.2 0-.3 0-.5-.1-5-1.3-9.8-3.1-14.4-5.6-1-.5-1.4-1.7-.8-2.7.5-1 1.7-1.4 2.7-.8 4.3 2.3 8.9 4 13.6 5.2 1.1.3 1.7 1.4 1.4 2.4-.3 1-1.1 1.6-2 1.6zm-26.5-13.7c-.4 0-.9-.1-1.3-.5-3.9-3.2-7.5-6.8-10.9-10.8-.7-.8-.6-2.1.2-2.8.8-.7 2.1-.6 2.8.2 3.2 3.8 6.7 7.3 10.4 10.3.9.7 1 2 .3 2.8-.3.5-.9.8-1.5.8zm-19.4-22.8c-.7 0-1.3-.3-1.7-1-2.7-4.4-5-9-6.9-13.7-.4-1 .1-2.2 1.1-2.6 1-.4 2.2.1 2.6 1.1 1.8 4.5 4 8.9 6.6 13.1.6.9.3 2.2-.7 2.7-.3.3-.7.4-1 .4zm-11.1-27.8c-.9 0-1.8-.7-2-1.6-1-5-1.6-10.1-1.6-15.3 0-1.1.9-2 2-2s2 .9 2 2c0 4.9.6 9.8 1.5 14.5.2 1.1-.5 2.1-1.6 2.4h-.3zm-.4-29.9h-.3c-1.1-.2-1.8-1.2-1.6-2.3.9-5 2.2-10 3.9-14.9.4-1 1.5-1.6 2.6-1.2 1 .4 1.6 1.5 1.2 2.6-1.6 4.7-2.9 9.4-3.7 14.2-.3.9-1.1 1.6-2.1 1.6zm9.9-28.3c-.3 0-.6-.1-.9-.2-1-.5-1.3-1.7-.8-2.7 2.4-4.4 5.2-8.8 8.2-12.9.7-.9 1.9-1.1 2.8-.4.9.7 1.1 1.9.4 2.8-3 4-5.6 8.2-7.9 12.4-.4.7-1.1 1-1.8 1zM185.8 412.4h-1.7c-1.1 0-2-.9-2-2s.9-2 2-2c2.5.1 5.2 0 7.8-.3 1.1-.1 2.1.7 2.2 1.8.1 1.1-.7 2.1-1.8 2.2-2.1.2-4.3.3-6.5.3z"/></g><g><defs><path id="m" d="M221.5 181c-6.4-11.6-6.7-26.5-.6-38.3 9.8-19 32.2-27.1 52.8-32.7 9.6-2.6 19.4-5.1 27.7-10.5s15-14.3 15-24.2c4.2 22.3-.9 46.3-13.8 65-12.9 18.7-33.5 31.9-55.9 35.9l-25.2 4.8z"/></defs><use xlink:href="#m" overflow="visible" fill="#6695CE"/><clipPath id="n"><use xlink:href="#m" overflow="visible"/></clipPath><g clip-path="url(#n)"><path fill="#5986C5" d="M312.7 70.7c6.2 20.8-4 43.3-19.2 57.6-3.8 3.6-8 6.7-12.5 9.2-5.3 3-11.1 4.9-16.9 6.9-6.1 2.1-12.1 4.4-17.6 7.7-5.1 3.1-9.7 7-13.6 11.5-8.8 10-14.4 23.2-13 36.6.2 2 3.3 1.9 3.1-.1-1.2-12.2 3.5-24.1 11.3-33.4 3.9-4.7 8.5-8.7 13.7-11.9 5.5-3.4 11.6-5.5 17.7-7.7 5.7-2 11.5-4 16.8-7 4.5-2.5 8.7-5.6 12.5-9.1 7.9-7.3 14.4-16.5 18.3-26.5 4.4-11.1 5.7-23.3 2.3-34.8-.5-1.8-3.5-.9-2.9 1z"/><path fill="#5986C5" d="M309.7 134.9c-6.7.4-13.3-.3-19.7-2.1-1.9-.5-2.7 2.5-.7 3 6.7 1.8 13.6 2.6 20.5 2.2 2-.1 1.9-3.2-.1-3.1zM306.8 142.2c-8.4-.2-16.6-1.6-24.6-4.2-1.9-.6-2.6 2.4-.7 3 8.2 2.6 16.8 4 25.5 4.2 1.9.2 1.8-3-.2-3zM271 104.8c-11 12.5-17.5 28.3-18.6 44.9-.1 2 3 1.9 3.1-.1 1-15.7 7.3-30.8 17.7-42.6 1.4-1.5-.8-3.7-2.2-2.2zM301 97.2c-2.5 8.7-3.5 17.8-2.9 26.8.1 2 3.3 1.9 3.1-.1-.7-8.8.3-17.5 2.8-26 .6-2-2.4-2.7-3-.7z"/><path fill="#5986C5" d="M260.8 107c-10.3 13-16 29.2-16.2 45.8 0 2 3.1 1.9 3.1-.1.2-15.7 5.6-31.2 15.3-43.6 1.3-1.5-1-3.7-2.2-2.1z"/></g></g><g><defs><path id="o" d="M495.2 428.2c-.9 6.1 6.2 13.7 6.7 19.9.6 6.2 2.8 12.4 7.3 16.6 2.1 2 4.8 3.5 7.7 3.3 3.7-.2 6.1-3.5 7.1-4.9 2.9-3.9 3-8.2 3-10 .6 3.4 1.9 8.7 5.5 14.1 2.6 3.8 5.2 6.4 8.2 7.4 5.7 1.9 12.1-5.4 12.5-11.4-.1 2 5.5 9 6.8 10.2 3 2.6 6.4 5.1 10.2 6.3 11.4 3.6 16.2-8.2 13.4-17.5-3-9.9-10.7-18.6-20.4-22.4 1 .4 2.7-.8 3.5-1.4 2.4-1.8 2.9-4.9 1.7-7.6-.9-2.1-2.8-3.4-4.7-4.4-4.3-2.3-9.2-3.5-13.9-4.2 5.1-3.1 5.5-10.8 2.5-16-3.2-5.5-9.6-9.1-16-8.9-6.4.2-12.6 4.2-15.4 9.9-13.2 2.4-26.3 4.9-39.5 7.3l13.8 13.7z"/></defs><use xlink:href="#o" overflow="visible" fill="#7E61AA"/><clipPath id="p"><use xlink:href="#o" overflow="visible"/></clipPath><g clip-path="url(#p)"><path fill="#784EA0" d="M581.3 483.4c-2.1-6.6-6-12.3-10.5-17.5-4.5-5.3-9.5-10.2-14.5-15.1-9.3-9.2-19.2-18-30-25.2-5.9-3.9-12.1-7.3-18.7-9.6-1.3-.4-.5-2.4.8-1.9 12.1 4.2 22.6 11.7 32.4 19.9 10.7 8.9 20.8 18.6 30.1 28.8 5.3 5.8 10 12.3 12.4 19.9.3 1.1-1.6 2-2 .7z"/></g><g clip-path="url(#p)"><path fill="#784EA0" d="m559.611 454.042 2.457-.462 4.697 24.963-2.457.462z"/></g><g clip-path="url(#p)"><path fill="#784EA0" d="m559.6 474.2-5.4-28.3-2.4.5 4.9 25.8z"/></g><g clip-path="url(#p)"><path fill="#784EA0" d="m543.8 475.2-8.6-45-2.7-1 8.9 46.4z"/></g><g clip-path="url(#p)"><path fill="#784EA0" d="m537.7 474-9.4-48.7-2.7-.9 8.9 46.2z"/></g><g clip-path="url(#p)"><path fill="#784EA0" d="m538.133 431.924 31.443-1.87.149 2.495-31.443 1.87z"/></g><g clip-path="url(#p)"><path fill="#784EA0" d="m567.2 427.9-.2-2.5-35.6 2.1 1.4 2.4z"/></g><g><defs><path id="q" d="M415.2 399.6c12.5-10.7 30.4-14.6 46.2-10.2 25.4 7.1 40.8 32.2 52.7 55.7 5.5 10.9 11 22.1 19.6 30.9 8.6 8.7 21.1 14.6 33 12.1-26 10.6-56.2 10.4-82.1-.6-25.8-11-47-32.6-57.3-58.7l-12.1-29.2z"/></defs><use xlink:href="#q" overflow="visible" fill="#F4B027"/><clipPath id="r"><use xlink:href="#q" overflow="visible"/></clipPath><g clip-path="url(#r)"><path fill="#F5982D" d="M571.3 482.5c-23.7 12.7-53.4 5.9-74.5-8.9-5.3-3.7-10.1-8-14.3-12.9-4.9-5.7-8.7-12.2-12.6-18.7-4.1-6.8-8.3-13.6-13.7-19.4-5-5.4-10.9-9.9-17.3-13.5-14.3-8.1-31.6-11.6-47.5-6.6-2.4.7-1.5 4.5.9 3.8 14.5-4.5 30.1-1.7 43.2 5.4 6.6 3.6 12.7 8.2 17.8 13.7 5.4 5.8 9.6 12.7 13.7 19.4 3.9 6.4 7.8 12.9 12.7 18.6 4.2 4.8 9 9.1 14.2 12.9 10.8 7.8 23.5 13.3 36.6 15.6 14.5 2.5 29.6 1.1 42.6-5.9 2.2-1.3.4-4.7-1.8-3.5z"/><path fill="#F5982D" d="M492.9 494.7c-2.1-8-2.9-16.1-2.3-24.3.2-2.5-3.7-2.6-3.9-.1-.6 8.5.3 17.1 2.5 25.4.6 2.3 4.3 1.4 3.7-1zM483.4 493.1c-1.8-10.2-2.2-20.5-1.1-30.8.3-2.5-3.6-2.6-3.9-.1-1.1 10.6-.7 21.3 1.2 31.8.4 2.4 4.2 1.5 3.8-.9zM519.7 440.5c-17.8-10.2-38.7-14.1-59-11.3-2.5.3-1.5 4.1.9 3.8 19.2-2.7 39.1 1.2 56 10.8 2.2 1.2 4.2-2 2.1-3.3zM536.4 474.9c-11.1-.9-22.4.1-33.1 3.2-2.4.7-1.5 4.4.9 3.8 10.4-3 21.3-4 32.1-3.1 2.4.1 2.6-3.7.1-3.9z"/><path fill="#F5982D" d="M514.5 428.6c-18.3-9.2-39.3-12.1-59.5-8.2-2.4.5-1.5 4.2.9 3.8 19.1-3.7 39.1-1 56.5 7.7 2.2 1.1 4.3-2.1 2.1-3.3z"/></g></g></g><g><defs><path id="s" d="m261.6 95.5-9.1.5 7.7-8.8c-1.8-11.8-5.1-20.1-5.1-20.1s-38.2 10.3-52.8 39.4c-3.4 6.8-6 13.5-7.9 20.1l6.7 11.9-8.5-4.3c-3.5 18.2-.4 33.3 9.4 38.3 14.5 7.3 38.2-10.3 52.8-39.4 5.1-10.4 6.9-27.4 6.8-37.6z"/></defs><use xlink:href="#s" overflow="visible" fill="#F4B027"/><clipPath id="t"><use xlink:href="#s" overflow="visible"/></clipPath><g clip-path="url(#t)"><path fill="#F5982D" d="m200.782 171.621 55.334-109.623 2.41 1.217-55.334 109.623z"/></g><g clip-path="url(#t)"><path fill="#F5982D" d="m230.17 114.55 38.733-8.249.563 2.641-38.733 8.249z"/></g><g clip-path="url(#t)"><path fill="#F5982D" d="m225.368 124.053 38.733-8.249.562 2.64-38.733 8.25z"/></g><g clip-path="url(#t)"><path fill="#F5982D" d="m205.971 162.457 38.733-8.249.562 2.64-38.733 8.25z"/></g><g clip-path="url(#t)"><path fill="#F5982D" d="m195.362 109.7 2.244-1.502 21.362 31.91-2.244 1.502z"/></g><g clip-path="url(#t)"><path fill="#F5982D" d="m198.058 104.312 2.244-1.502 21.362 31.91-2.244 1.503z"/></g><g clip-path="url(#t)"><path fill="#F5982D" d="m217.87 65.106 2.243-1.502 21.362 31.91-2.243 1.502z"/></g></g><g><path fill="#4661AD" d="M278.5 479.6h145c7.3 0 13.9 3.9 17.5 10h2.1c-2.4-8.9-10.4-15.1-19.6-15.1h-145c-9.2 0-17.2 6.2-19.6 15.1h2.1c3.6-6.1 10.2-10 17.5-10z"/><path fill="#5397D1" d="M423.5 479.6h-145c-7.3 0-13.9 3.9-17.5 10h180c-3.5-6.1-10.1-10-17.5-10zM298 449.8l-7.9 24.7h121.8l-7.9-24.7z"/><path fill="#4661AD" d="M398.9 433.9h-95.8l-5.1 15.9h106z"/><path fill="#5397D1" d="M527.7 433.9H173.8c-7.5 0-13.7-6.1-13.7-13.7v-21.6h381.3v21.6c0 7.6-6.1 13.7-13.7 13.7z"/><circle fill="#4661AD" cx="350.8" cy="416.3" r="9.7"/><path fill="#A5DEF5" d="M541.4 398.6H160.1V181c0-6.6 5.3-11.9 11.9-11.9h357.4c6.6 0 11.9 5.3 11.9 11.9v217.6z"/><g><path fill="#FFF" d="M527.9 206.6H173.6c-1 0-1.9-.8-1.9-1.9v-23.6c0-1 .8-1.9 1.9-1.9H528c1 0 1.9.8 1.9 1.9v23.6c-.1 1-.9 1.9-2 1.9z"/><g fill="#A5DEF5"><path d="M263.5 196.5h-32.7c-2 0-3.6-1.6-3.6-3.6s1.6-3.6 3.6-3.6h32.7c2 0 3.6 1.6 3.6 3.6.1 2-1.6 3.6-3.6 3.6zM325 196.5h-32.7c-2 0-3.6-1.6-3.6-3.6s1.6-3.6 3.6-3.6H325c2 0 3.6 1.6 3.6 3.6.1 2-1.6 3.6-3.6 3.6zM386.5 196.5h-32.7c-2 0-3.6-1.6-3.6-3.6s1.6-3.6 3.6-3.6h32.7c2 0 3.6 1.6 3.6 3.6.1 2-1.6 3.6-3.6 3.6zM448 196.5h-32.7c-2 0-3.6-1.6-3.6-3.6s1.6-3.6 3.6-3.6H448c2 0 3.6 1.6 3.6 3.6s-1.6 3.6-3.6 3.6zM509.5 196.5h-32.7c-2 0-3.6-1.6-3.6-3.6s1.6-3.6 3.6-3.6h32.7c2 0 3.6 1.6 3.6 3.6s-1.6 3.6-3.6 3.6z"/></g><path fill="#FFF" d="M306.3 388.5H175c-1.3 0-2.4-1.1-2.4-2.4V220.5c0-1.3 1.1-2.4 2.4-2.4h131.2c1.3 0 2.4 1.1 2.4 2.4V386c.1 1.4-1 2.5-2.3 2.5zM527.4 388.5H322.5c-1.3 0-2.4-1.1-2.4-2.4V220.5c0-1.3 1.1-2.4 2.4-2.4h204.9c1.3 0 2.4 1.1 2.4 2.4V386c0 1.4-1.1 2.5-2.4 2.5z"/></g><path fill="#8090C8" d="M294.5 300.5H182.2c-1.9 0-3.4-1.5-3.4-3.4v-65.8c0-1.9 1.5-3.4 3.4-3.4h112.3c1.9 0 3.4 1.5 3.4 3.4v65.8c-.1 1.9-1.6 3.4-3.4 3.4z"/></g><g><path fill="#F174AC" d="M242.8 181.4v-38.8l-30.4-30.4h-97.3V227.5h127.7z"/><path fill="#ED2480" d="M115.1 227.5v41.6h127.7v-41.6zM212.4 142.6h30.4l-30.4-30.4z"/><g fill="#ED2480"><path d="M138 167.1c-.2.3-.5.6-.9 1.1-.3.4-.6.7-.7.9-.1.2-.2.5-.2.8 0 .3.1.5.3.8.2.3.4.6.8 1s.7.8.8 1.1c.2.3.3.6.3 1v5.5c0 1.9.1 3.4.4 4.5.3 1.1.9 1.8 1.9 2 .6.1 1.1.4 1.4.8.3.4.5.9.5 1.3 0 .5-.2.9-.5 1.2-.3.3-.8.5-1.4.5h-.7c-2.5 0-4.4-.9-5.7-2.7-1.3-1.8-1.9-4.1-1.9-6.9v-6.3c0-.4-.1-.7-.3-1-.2-.3-.5-.7-.8-1.1-.6-.7-1-1.3-1-1.7 0-.3.1-.5.2-.8.1-.2.4-.6.7-.9.4-.4.7-.8.8-1.1.2-.3.3-.7.3-1.1v-6.3c0-2.8.6-5.1 1.9-6.9 1.3-1.8 3.2-2.7 5.7-2.7h.6c.6 0 1.1.2 1.4.5.3.3.5.7.5 1.2s-.2.9-.5 1.3-.8.7-1.4.8c-1 .2-1.6.8-1.9 2-.3 1.1-.4 2.6-.4 4.5v5.5c.1.6 0 .9-.2 1.2zM163.2 153.5c1.2.8 2.1 1.8 2.7 3.1.7 1.3 1 2.7 1 4.3v3.1c0 .3-.1.5-.3.7-.2.2-.4.3-.7.3h-3.4c-.3 0-.5-.1-.7-.3-.2-.2-.3-.4-.3-.7v-2.4c0-1.1-.3-2.1-.8-2.8-.5-.7-1.3-1.1-2.3-1.1-1 0-1.8.4-2.4 1.1-.5.7-.8 1.7-.8 2.8v16.7c0 1.1.3 2.1.8 2.8.5.7 1.3 1.1 2.4 1.1 1 0 1.8-.4 2.3-1.1.5-.7.8-1.7.8-2.8v-2.1c0-.3.1-.5.3-.7.2-.2.4-.3.7-.3h3.4c.3 0 .5.1.7.3.2.2.3.4.3.7v2.9c0 1.6-.3 3-1 4.3-.7 1.3-1.6 2.3-2.7 3.1s-2.5 1.1-4 1.1h-1.4c-1.5 0-2.9-.4-4.1-1.1-1.2-.8-2.1-1.8-2.7-3.1-.7-1.3-1-2.7-1-4.3V161c0-1.6.3-3 1-4.3.7-1.3 1.6-2.3 2.7-3.1 1.2-.8 2.5-1.1 4.1-1.1h1.4c1.5-.2 2.8.2 4 1zM183.7 153.5c1.2.8 2.1 1.8 2.7 3.1.7 1.3 1 2.7 1 4.3v1.2c0 .2-.1.5-.3.7-.2.2-.4.3-.7.3H183c-.2 0-.4-.1-.7-.3-.2-.2-.3-.4-.3-.7v-.5c0-1.1-.3-2.1-.8-2.8-.5-.7-1.3-1.1-2.3-1.1-1 0-1.8.4-2.3 1.1-.5.7-.8 1.7-.8 2.8V163.1c0 1.3.2 2.2.8 2.9.4.5.9.9 1.4 1.2.5.3 1.2.6 2 1 1.4.6 2.6 1.3 3.6 2s1.9 1.8 2.8 3.2c.3.5.6 1.3.8 2.2.2.9.3 1.6.3 2.1v1.4c0 1.6-.3 3-1 4.3-.7 1.3-1.6 2.3-2.7 3.1-1.2.8-2.5 1.1-4.1 1.1h-1.3c-1.5 0-2.8-.4-4-1.1-1.2-.8-2.1-1.8-2.7-3.1-.7-1.3-1-2.7-1-4.3V178c0-.3.1-.5.3-.7.2-.2.4-.3.7-.3h3.4c.3 0 .5.1.7.3.2.2.3.4.3.7v.3c0 1.1.3 2.1.8 2.8.5.7 1.3 1.1 2.3 1.1 1 0 1.8-.4 2.3-1.1.5-.7.8-1.7.8-2.8v-.7c0-.5-.1-1-.2-1.7s-.4-1.2-.8-1.7-.9-.9-1.5-1.2c-.6-.3-1.3-.6-2.2-1-1.5-.6-2.8-1.2-3.8-1.9s-1.8-1.8-2.4-3.4c-.2-.5-.3-1.1-.4-1.8-.1-.7-.1-1.3-.1-1.8v-2.2c0-1.6.3-3 1-4.3.7-1.3 1.6-2.3 2.7-3.1 1.2-.8 2.5-1.1 4-1.1h1.3c1.2-.1 2.6.3 3.8 1.1zM204.1 153.5c1.2.8 2.1 1.8 2.7 3.1.7 1.3 1 2.7 1 4.3v1.2c0 .2-.1.5-.3.7-.2.2-.4.3-.7.3h-3.4c-.2 0-.4-.1-.7-.3-.2-.2-.3-.4-.3-.7v-.5c0-1.1-.3-2.1-.8-2.8-.5-.7-1.3-1.1-2.3-1.1-1 0-1.8.4-2.3 1.1-.5.7-.8 1.7-.8 2.8V163.1c0 1.3.2 2.2.8 2.9.4.5.9.9 1.4 1.2.5.3 1.2.6 2 1 1.4.6 2.6 1.3 3.6 2s1.9 1.8 2.8 3.2c.3.5.6 1.3.8 2.2.2.9.3 1.6.3 2.1v1.4c0 1.6-.3 3-1 4.3-.7 1.3-1.6 2.3-2.7 3.1-1.2.8-2.5 1.1-4.1 1.1h-1.3c-1.5 0-2.8-.4-4-1.1-1.2-.8-2.1-1.8-2.7-3.1-.7-1.3-1-2.7-1-4.3V178c0-.3.1-.5.3-.7.2-.2.4-.3.7-.3h3.4c.3 0 .5.1.7.3.2.2.3.4.3.7v.3c0 1.1.3 2.1.8 2.8.5.7 1.3 1.1 2.3 1.1 1 0 1.8-.4 2.3-1.1.5-.7.8-1.7.8-2.8v-.7c0-.5-.1-1-.2-1.7s-.4-1.2-.8-1.7-.9-.9-1.5-1.2c-.6-.3-1.3-.6-2.2-1-1.5-.6-2.8-1.2-3.8-1.9s-1.8-1.8-2.4-3.4c-.2-.5-.3-1.1-.4-1.8-.1-.7-.1-1.3-.1-1.8v-2.2c0-1.6.3-3 1-4.3.7-1.3 1.6-2.3 2.7-3.1 1.2-.8 2.5-1.1 4-1.1h1.3c1.3-.1 2.7.3 3.8 1.1zM219.6 160.5c0-1.9-.1-3.4-.4-4.5-.3-1.1-.9-1.8-1.9-2-.6-.1-1.1-.4-1.4-.8-.3-.4-.5-.9-.5-1.3 0-.5.2-.9.5-1.2.3-.3.8-.5 1.4-.5h.6c2.5 0 4.4.9 5.7 2.7 1.3 1.8 1.9 4.1 1.9 6.9v6.3c0 .4.1.8.3 1.1.2.3.5.7.8 1.1.3.4.6.7.7.9.1.2.2.5.2.8 0 .4-.3 1-1 1.7-.4.4-.7.8-.8 1.1-.2.3-.3.6-.3 1v6.3c0 2.8-.6 5.1-1.9 6.9-1.3 1.8-3.2 2.7-5.7 2.7h-.6c-.6 0-1.1-.2-1.4-.5-.3-.3-.5-.7-.5-1.2s.2-.9.5-1.3.8-.7 1.4-.8c1-.2 1.6-.8 1.9-2 .3-1.1.4-2.6.4-4.5v-5.5c0-.4.1-.7.3-1 .2-.3.5-.7.8-1.1.3-.4.6-.7.8-1 .2-.3.3-.5.3-.8 0-.3-.1-.5-.2-.8-.1-.2-.4-.6-.7-.9-.4-.4-.7-.8-.9-1.1-.2-.3-.3-.6-.3-1v-5.7z"/></g><path fill="#ED2480" d="M224.3 201.7h-90.6c-1.8 0-3.3-1.5-3.3-3.3 0-1.8 1.5-3.3 3.3-3.3h90.6c1.8 0 3.3 1.5 3.3 3.3 0 1.8-1.5 3.3-3.3 3.3z"/><g><g fill="#F6A9CA"><path d="M123.8 256.2h4.5c1.1 0 2.1.8 2.2 1.8.2 1.4-.8 2.6-2.2 2.6h-4.6c-1.2 0-2.2-1-2.2-2.2.1-1.2 1.1-2.2 2.3-2.2zM135.1 256.2h26.3c1.1 0 2.1.8 2.2 1.8.2 1.4-.8 2.6-2.2 2.6H135c-1.2 0-2.2-1-2.2-2.2.1-1.2 1.1-2.2 2.3-2.2zM167.9 256.2h31.4c1.1 0 2.1.8 2.2 1.8.2 1.4-.8 2.6-2.2 2.6h-31.5c-1.2 0-2.2-1-2.2-2.2.1-1.2 1.1-2.2 2.3-2.2z"/><g><path d="M123.8 246.1h31.4c1.1 0 2.1.8 2.2 1.8.2 1.4-.8 2.6-2.2 2.6h-31.4c-1.1 0-2.1-.8-2.2-1.8-.2-1.4.9-2.6 2.2-2.6zM161.2 247.9c.2-1.1 1.1-1.8 2.2-1.8h35.8c1.1 0 2.1.8 2.2 1.8.2 1.4-.8 2.6-2.2 2.6h-35.9c-1.2 0-2.3-1.2-2.1-2.6z"/></g><g><path d="M154.3 240.4h-5.7c-1.1 0-2.1-.8-2.2-1.8-.2-1.4.8-2.6 2.2-2.6h5.7c1.2 0 2.2 1 2.2 2.2 0 1.2-1 2.2-2.2 2.2zM121.6 238.2c0-1.2 1-2.2 2.2-2.2h18.3c1.2 0 2.2 1 2.2 2.2 0 1.2-1 2.2-2.2 2.2h-18.3c-1.2 0-2.2-1-2.2-2.2z"/></g></g></g></g><g><g fill="#8090C8"><path d="M233.1 312.9H212c-1.1 0-2.1-.8-2.3-1.9-.2-1.4.9-2.6 2.2-2.6h21.2c1.2 0 2.2 1 2.2 2.2.1 1.3-.9 2.3-2.2 2.3zM204.5 312.9h-23.2c-1.1 0-2.1-.8-2.3-1.9-.2-1.4.9-2.6 2.2-2.6h23.3c1.2 0 2.2 1 2.2 2.2.1 1.3-.9 2.3-2.2 2.3zM233.1 324.1H224c-1.1 0-2.1-.8-2.3-1.9-.2-1.4.9-2.6 2.2-2.6h9.1c1.1 0 2.1.8 2.3 1.9.3 1.3-.8 2.6-2.2 2.6zM217.9 322.2c-.2 1.1-1.2 1.9-2.3 1.9h-34.3c-1.1 0-2.1-.8-2.3-1.9-.2-1.4.9-2.6 2.2-2.6h34.4c1.4 0 2.5 1.2 2.3 2.6zM181.3 330.7h4.6c1.1 0 2.1.8 2.3 1.9.2 1.4-.9 2.6-2.2 2.6h-4.6c-1.2 0-2.2-1-2.2-2.2-.2-1.2.8-2.3 2.1-2.3zM235.4 333c0 1.2-1 2.2-2.2 2.2h-38.9c-1.2 0-2.2-1-2.2-2.2 0-1.2 1-2.2 2.2-2.2h38.9c1.2-.1 2.2 1 2.2 2.2z"/></g><g fill="#8090C8"><path d="M295.6 312.9h-21.1c-1.1 0-2.1-.8-2.3-1.9-.2-1.4.9-2.6 2.2-2.6h21.2c1.2 0 2.2 1 2.2 2.2 0 1.3-1 2.3-2.2 2.3zM267 312.9h-23.2c-1.1 0-2.1-.8-2.3-1.9-.2-1.4.9-2.6 2.2-2.6H267c1.2 0 2.2 1 2.2 2.2 0 1.3-1 2.3-2.2 2.3zM295.6 324.1h-9.1c-1.1 0-2.1-.8-2.3-1.9-.2-1.4.9-2.6 2.2-2.6h9.1c1.1 0 2.1.8 2.3 1.9.2 1.3-.8 2.6-2.2 2.6zM280.3 322.2c-.2 1.1-1.2 1.9-2.3 1.9h-34.3c-1.1 0-2.1-.8-2.3-1.9-.2-1.4.9-2.6 2.2-2.6H278c1.5 0 2.6 1.2 2.3 2.6zM243.7 330.7h4.6c1.1 0 2.1.8 2.3 1.9.2 1.4-.9 2.6-2.2 2.6h-4.6c-1.2 0-2.2-1-2.2-2.2-.1-1.2.9-2.3 2.1-2.3zM297.8 333c0 1.2-1 2.2-2.2 2.2h-38.9c-1.2 0-2.2-1-2.2-2.2 0-1.2 1-2.2 2.2-2.2h38.9c1.2-.1 2.2 1 2.2 2.2z"/></g></g><path fill="#A5DEF5" d="M293.1 355.8H183.6c-2.6 0-4.7-2.1-4.7-4.7s2.1-4.7 4.7-4.7h109.5c2.6 0 4.7 2.1 4.7 4.7 0 2.5-2.1 4.7-4.7 4.7z"/><g><g fill="#A5DEF5"><path d="M226.2 370.6h-2.7c-1.1 0-2.1-.8-2.3-2-.2-1.5.9-2.8 2.2-2.8h2.7c1.1 0 2.1.8 2.3 2 .2 1.4-.8 2.8-2.2 2.8zM252.9 370.6h-19.8c-1.1 0-2.1-.8-2.3-2-.2-1.5.9-2.8 2.2-2.8h19.8c1.1 0 2.1.8 2.3 2 .2 1.4-.8 2.8-2.2 2.8zM217.8 368.5c-.2 1.2-1.2 2-2.3 2h-34.4c-1.1 0-2.1-.8-2.3-2-.2-1.5.9-2.8 2.2-2.8h34.5c1.4 0 2.5 1.3 2.3 2.8zM297.8 368.5c-.2 1.2-1.2 2-2.3 2h-36.6c-1.1 0-2.1-.8-2.3-2-.2-1.5.9-2.8 2.2-2.8h36.7c1.5 0 2.5 1.3 2.3 2.8zM181.1 375.8h4.6c1.1 0 2.1.8 2.3 2 .2 1.5-.9 2.8-2.2 2.8h-4.6c-1.2 0-2.2-1.1-2.2-2.4-.1-1.3.9-2.4 2.1-2.4zM246 375.8h49.6c1.1 0 2.1.8 2.3 2 .2 1.5-.9 2.8-2.2 2.8h-49.6c-1.2 0-2.2-1.1-2.2-2.4-.2-1.3.8-2.4 2.1-2.4zM240.6 378.3c0 1.3-1 2.4-2.2 2.4h-44.3c-1.2 0-2.2-1.1-2.2-2.4 0-1.3 1-2.4 2.2-2.4h44.3c1.2-.1 2.2 1 2.2 2.4z"/></g></g><g fill="#5397D1"><path d="M358.1 238.2h-24.4c-2.8 0-5.1-2.3-5.1-5.1s2.3-5.1 5.1-5.1h24.4c2.8 0 5.1 2.3 5.1 5.1s-2.3 5.1-5.1 5.1zM459.2 238.2H451c-2.8 0-5.1-2.3-5.1-5.1s2.3-5.1 5.1-5.1h8.2c2.8 0 5.1 2.3 5.1 5.1s-2.3 5.1-5.1 5.1zM434.8 238.2h-43.1c-2.8 0-5.1-2.3-5.1-5.1s2.3-5.1 5.1-5.1h43.1c2.8 0 5.1 2.3 5.1 5.1s-2.3 5.1-5.1 5.1zM374.4 238.2c-2.8 0-5.1-2.3-5.1-5.1s2.3-5.1 5.1-5.1 5.1 2.3 5.1 5.1-2.3 5.1-5.1 5.1z"/></g><g><path fill="#5397D1" d="M518.3 333H331.6c-1.6 0-2.9-1.3-2.9-2.9V249c0-1.6 1.3-2.9 2.9-2.9h186.7c1.6 0 2.9 1.3 2.9 2.9v81.1c0 1.6-1.3 2.9-2.9 2.9z"/><g fill="#ED2480"><path d="M391.9 350.9h-61.3c-1.1 0-2-.9-2-2v-9.3c0-1.1.9-2 2-2h61.3c1.1 0 2 .9 2 2v9.3c0 1.2-.9 2-2 2zM464.5 350.9h-61.3c-1.1 0-2-.9-2-2v-9.3c0-1.1.9-2 2-2h61.3c1.1 0 2 .9 2 2v9.3c-.1 1.2-1 2-2 2z"/></g><g fill="#5397D1"><path d="M391.9 382.2h-61.3c-1.1 0-2-.9-2-2v-21.5c0-1.1.9-2 2-2h61.3c1.1 0 2 .9 2 2v21.5c0 1.1-.9 2-2 2zM464.5 382.2h-61.3c-1.1 0-2-.9-2-2v-21.5c0-1.1.9-2 2-2h61.3c1.1 0 2 .9 2 2v21.5c-.1 1.1-1 2-2 2z"/></g><g fill="#88C0E8"><path d="M387.2 367.1h-21.1c-1.1 0-2.1-.8-2.3-1.9-.2-1.4.9-2.6 2.2-2.6h21.2c1.2 0 2.2 1 2.2 2.2.1 1.3-.9 2.3-2.2 2.3zM358.6 367.1h-23.2c-1.1 0-2.1-.8-2.3-1.9-.2-1.4.9-2.6 2.2-2.6h23.3c1.2 0 2.2 1 2.2 2.2.1 1.3-.9 2.3-2.2 2.3zM387.2 376.3h-9.1c-1.1 0-2.1-.8-2.3-1.9-.2-1.4.9-2.6 2.2-2.6h9.1c1.1 0 2.1.8 2.3 1.9.3 1.4-.8 2.6-2.2 2.6zM372 374.5c-.2 1.1-1.2 1.9-2.3 1.9h-34.3c-1.1 0-2.1-.8-2.3-1.9-.2-1.4.9-2.6 2.2-2.6h34.4c1.4-.1 2.5 1.1 2.3 2.6z"/></g><g><g fill="#88C0E8"><path d="M407.9 371.8H429c1.1 0 2.1.8 2.3 1.9.2 1.4-.9 2.6-2.2 2.6h-21.2c-1.2 0-2.2-1-2.2-2.2-.1-1.3.9-2.3 2.2-2.3zM436.5 371.8h23.2c1.1 0 2.1.8 2.3 1.9.2 1.4-.9 2.6-2.2 2.6h-23.3c-1.2 0-2.2-1-2.2-2.2-.1-1.3.9-2.3 2.2-2.3zM407.9 362.6h9.1c1.1 0 2.1.8 2.3 1.9.2 1.4-.9 2.6-2.2 2.6H408c-1.1 0-2.1-.8-2.3-1.9-.3-1.3.8-2.6 2.2-2.6zM423.1 364.5c.2-1.1 1.2-1.9 2.3-1.9h34.3c1.1 0 2.1.8 2.3 1.9.2 1.4-.9 2.6-2.2 2.6h-34.4c-1.4 0-2.5-1.2-2.3-2.6z"/></g></g></g><g><path fill="#FFF" d="m426 289.5 7.8-9.5 6.9 5.4 1.2-6 8.7 4.8.8-3.3L437 267c-.9-.9-2.3-.9-3.2 0l-16.1 16.1 11-4.1-2.7 10.5z"/><path fill="#88C0E8" d="m504.6 333-53.2-52-.8 3.3-8.7-4.8-1.2 5.9-6.9-5.3-7.8 9.4 2.7-10.5-11 4.2-49.9 49.8z"/></g><g><path fill="#5A71B6" d="m494.8 268-1.4 5-5.1-3.4-3.2 5.7-2.7-3.6-5.5 4.7-1.1-3.2-7.3 2.3-29 29 81.7-5.3v-4.8z"/><path fill="#FFF" d="m476.9 276.4 5.4-4.7 2.7 3.6 3.1-5.7 5.2 3.4 1.3-5-7.7-7.7c-.9-.9-2.3-.9-3.2 0l-15.3 15.3 7.3-2.3 1.2 3.1z"/></g><g><path fill="#7553A2" d="M445 394.7c.1 2.2 2 3.9 4.1 3.9h72.7c2.2 0 4-1.7 4.1-3.9l4.2-79.8H440l5 79.8z"/><path fill="#744C9E" d="m439.5 304.5.6 10.4h90.1l.6-10.4z"/><path fill="#7E61AA" d="M535 308.7h-99.7c-2.3 0-4.1-1.8-4.1-4.1v-5.3c0-2.3 1.8-4.1 4.1-4.1H535c2.3 0 4.1 1.8 4.1 4.1v5.3c-.1 2.2-1.9 4.1-4.1 4.1z"/><circle fill="#4B2B82" cx="464.4" cy="302.8" r="4.1"/><g><path fill="#5F3494" d="M464.5 301.9c-1.4 0-2.5 1.1-2.5 2.5v38.9c0 6.6-5 12.3-11.6 12.6-7 .3-12.9-5.3-12.9-12.2v-35h-2.3c-1 0-2-.4-2.7-1.1v35.6c0 9.3 7.2 17.3 16.6 17.6 9.8.4 17.9-7.5 17.9-17.2v-39.3c0-1.3-1.1-2.4-2.5-2.4z"/></g><g><path fill="#4661AD" d="M500.9 373.7v-.5c0-1.9 1.6-3.5 3.5-3.5h.5c1.9 0 3.5 1.6 3.5 3.5v.5c0 1.9-1.6 3.5-3.5 3.5h-.5c-2 0-3.5-1.6-3.5-3.5z"/></g><g><path fill="#354EA2" d="M523.1 308.7h-51.9V314.9h51.9v-2.3z"/><path fill="#4661AD" d="M471.2 319.3v31.8c0 2 1.7 3.7 3.7 3.7s3.7-1.7 3.7-3.7v-19.9c0-2 1.7-3.7 3.7-3.7s3.7 1.7 3.7 3.7v32.3c0 2 1.7 3.7 3.7 3.7s3.7-1.7 3.7-3.7v-11.6c0-2 1.7-3.7 3.7-3.7s3.7 1.7 3.7 3.7v11.6c0 2 1.7 3.7 3.7 3.7s3.7-1.7 3.7-3.7v-28.9c0-2 1.7-3.7 3.7-3.7s3.7 1.7 3.7 3.7v4.2c0 2 1.7 3.7 3.7 3.7s3.7-1.7 3.7-3.7V315h-51.9v4.3zM471.2 295.2h51.9v13.5h-51.9z"/></g></g><g><path fill="#FFF" d="M413.1 302.1c0-3.2-2.6-5.7-5.7-5.7-.9 0-1.7.2-2.4.5-1.1-1.8-3-2.9-5.2-2.9-3.2 0-5.9 2.5-6.1 5.7h-.2c-2.2 0-4.1 1.8-4.1 4.1 0 2.2 1.8 4.1 4.1 4.1h14.7c1.6 0 4.9-.6 4.9-5.8zM344 315c-1.6-.3-2.5.9-2.5 2s.9 2 2 2H360.4c1.7 0 3.1-1.4 3.1-3.1 0-1.7-1.4-3.1-3.1-3.1h-.3v-.1c0-3.4-2.7-6.1-6.1-6.1-2.7 0-4.9 1.7-5.8 4.1-.6-.3-1.2-.4-1.9-.4-.9 0-1.8.2-2.5.7-.9.6-1.3 1.6-1.4 2.7 0 .6.1 1.2.4 1.7l1.2-.4z"/><path fill="#FFF" d="M407.6 309c-1-.2-1.6.6-1.6 1.3 0 .7.6 1.3 1.3 1.3H418.2c1.1 0 2-.9 2-2s-.9-2-2-2h-.2c0-2.2-1.8-3.9-3.9-3.9-1.7 0-3.2 1.1-3.7 2.6-.4-.2-.8-.3-1.2-.3-.6 0-1.2.1-1.6.4-.6.4-.9 1-.9 1.7 0 .4 0 .8.3 1.1l.6-.2zM368.9 268.9c-1-.2-1.6.6-1.6 1.3 0 .7.6 1.3 1.3 1.3H379.5c1.1 0 2-.9 2-2s-.9-2-2-2h-.2c0-2.2-1.8-3.9-3.9-3.9-1.7 0-3.2 1.1-3.7 2.6-.4-.2-.8-.3-1.2-.3-.6 0-1.2.1-1.6.4-.6.4-.9 1-.9 1.7 0 .4 0 .8.3 1.1l.6-.2z"/></g><g><path fill="#8580BD" d="M172.9 264.3h79.3v7h-79.3z"/><path fill="#6867AF" d="M242.1 286.6h-59c-5.6 0-10.2-4.5-10.2-10.2v-5.1h79.3v5.1c.1 5.6-4.5 10.2-10.1 10.2z"/><path fill="#354EA2" d="M222.4 294.4h-18.3l-3.6 34.3H226z"/><path fill="#403B97" d="M221.6 286.6h-16.7l-.8 7.8h18.3z"/><g><path fill="#6867AF" d="m227 337.7-.9-9h-25.5l-.9 9c-.9 8.1 5.5 15.2 13.7 15.2 8 0 14.4-7.1 13.6-15.2zm-13.7 6.8c-2.5 0-4.5-2-4.5-4.5s2-4.5 4.5-4.5 4.5 2 4.5 4.5-2.1 4.5-4.5 4.5z"/></g><g><path fill="#DFE6F4" d="m237.7 210.5-5.6 2.1-5.6-2.1h-18.7l-5.9 4.7-5.7-4.7h-21.1c-1.2 0-2.2 1-2.2 2.2v51.5h79.3v-51.5c0-1.2-1-2.2-2.2-2.2h-12.3z"/></g><g><g fill="#3E439B"><path d="M185.8 264.3h-5.6v-17.4c0-1.5 1.2-2.8 2.8-2.8 1.5 0 2.8 1.2 2.8 2.8v17.4zM183 239.7c-1.5 0-2.8-1.2-2.8-2.8v-6.6c0-1.5 1.2-2.8 2.8-2.8 1.5 0 2.8 1.2 2.8 2.8v6.6c0 1.6-1.2 2.8-2.8 2.8z"/></g><g fill="#3E439B"><path d="M245 264.3h-5.6v-17.4c0-1.5 1.2-2.8 2.8-2.8 1.5 0 2.8 1.2 2.8 2.8v17.4zM242.2 239.7c-1.5 0-2.8-1.2-2.8-2.8v-6.6c0-1.5 1.2-2.8 2.8-2.8 1.5 0 2.8 1.2 2.8 2.8v6.6c0 1.6-1.3 2.8-2.8 2.8z"/></g><path fill="#3E439B" d="M215.4 264.3h-5.6v-29.2c0-1.5 1.2-2.8 2.8-2.8 1.5 0 2.8 1.2 2.8 2.8v29.2z"/><g fill="#3E439B"><path d="M200.6 264.3H195v-6.9c0-1.5 1.2-2.8 2.8-2.8 1.5 0 2.8 1.2 2.8 2.8v6.9zM197.8 250.3c-1.5 0-2.8-1.2-2.8-2.8v-6.6c0-1.5 1.2-2.8 2.8-2.8 1.5 0 2.8 1.2 2.8 2.8v6.6c0 1.5-1.2 2.8-2.8 2.8z"/></g><g fill="#3E439B"><path d="M230.2 264.3h-5.6v-6.9c0-1.5 1.2-2.8 2.8-2.8 1.5 0 2.8 1.2 2.8 2.8v6.9zM227.4 250.3c-1.5 0-2.8-1.2-2.8-2.8v-6.6c0-1.5 1.2-2.8 2.8-2.8 1.5 0 2.8 1.2 2.8 2.8v6.6c0 1.5-1.3 2.8-2.8 2.8z"/></g></g></g></svg>