<svg version="1.0" xmlns="http://www.w3.org/2000/svg" xmlns:xlink="http://www.w3.org/1999/xlink" viewBox="0 0 642 565" xml:space="preserve"><path fill="#ED2480" d="M116.8 272.9c-.4 0-.8-.1-1.2-.4-.9-.7-1.1-1.9-.4-2.8 2.5-3.4 4.4-5.6 5.1-6.4.7-.8 2-.9 2.8-.2.8.7.9 2 .2 2.8-.7.8-2.5 2.9-4.9 6.1-.4.7-1 .9-1.6.9zM95.5 343.6c-1 0-1.9-.8-2-1.8-.2-2.6-.3-5.2-.3-7.9 0-3.7.2-7.6.7-11.3.1-1.1 1.1-1.9 2.2-1.8 1.1.1 1.9 1.1 1.8 2.2-.4 3.6-.6 7.3-.6 10.9 0 2.5.1 5 .3 7.5.1 1.1-.7 2.1-1.8 2.2h-.3zm4.3-37.2c-.2 0-.4 0-.6-.1-1.1-.3-1.6-1.5-1.3-2.5 1.9-6 4.3-11.9 7.3-17.7.5-1 1.7-1.4 2.7-.9 1 .5 1.4 1.7.9 2.7-2.8 5.6-5.2 11.3-7 17.1-.3.8-1.1 1.4-2 1.4zM101.5 369.6c-.8 0-1.6-.5-1.9-1.3-1-2.5-1.9-5.1-2.6-7.7-.3-1.1.3-2.2 1.4-2.5 1.1-.3 2.2.3 2.5 1.4.7 2.5 1.6 5 2.5 7.4.4 1-.1 2.2-1.1 2.6-.3.1-.5.1-.8.1zM533.3 314.9c-.5 0-.9-.2-1.3-.5-.8-.7-.9-2-.2-2.8 3.5-4 6.6-8.2 9.5-12.5.6-.9 1.8-1.2 2.8-.6.9.6 1.2 1.8.6 2.8-2.9 4.5-6.2 8.9-9.8 13-.5.4-1.1.6-1.6.6zm17.4-26.7c-.3 0-.6-.1-.8-.2-1-.5-1.4-1.7-1-2.7 2.2-4.8 4-9.7 5.5-14.7.3-1.1 1.4-1.7 2.5-1.4 1.1.3 1.7 1.4 1.4 2.5-1.5 5.2-3.4 10.3-5.7 15.3-.5.7-1.2 1.2-1.9 1.2zm8.8-30.7h-.2c-1.1-.1-1.9-1.1-1.7-2.2.4-3.7.7-7.4.7-11 0-1.6 0-3.1-.1-4.6-.1-1.1.8-2 1.9-2.1 1.1-.1 2 .8 2.1 1.9.1 1.6.1 3.2.1 4.9 0 3.8-.2 7.6-.7 11.5-.3.9-1.1 1.6-2.1 1.6zm-1.8-31.7c-.9 0-1.7-.6-1.9-1.5-1.3-5.1-3.1-10-5.4-14.6-.5-1-.1-2.2.9-2.7s2.2-.1 2.7.9c2.4 4.8 4.3 10 5.7 15.4.3 1.1-.4 2.2-1.5 2.4-.2 0-.4.1-.5.1zm-14.5-28.3c-.6 0-1.1-.2-1.5-.7-3.4-3.8-7.3-7.3-11.6-10.2-.9-.6-1.2-1.9-.5-2.8.6-.9 1.9-1.2 2.8-.5 4.6 3.1 8.8 6.8 12.4 10.9.7.8.6 2.1-.2 2.8-.4.4-.9.5-1.4.5zm-26.1-17.9c-.2 0-.5 0-.7-.1-4.7-1.8-9.7-3.2-15-4.2-1.1-.2-1.8-1.3-1.6-2.3.2-1.1 1.3-1.8 2.3-1.6 5.5 1.1 10.8 2.5 15.7 4.4 1 .4 1.5 1.6 1.1 2.6-.2.7-1 1.2-1.8 1.2zm-47.3-5.5c-1 0-1.9-.7-2-1.8-.1-1.1.6-2.1 1.7-2.2 1.6-.2 5.9-.6 11.8-.6 1.5 0 3 0 4.5.1 1.1 0 2 1 1.9 2.1 0 1.1-.9 2-2.1 1.9-1.4-.1-2.9-.1-4.4-.1-5.7 0-9.8.4-11.3.6h-.1z"/><defs><path id="a" d="M145.1 393.9c-6.5-.9-13.3 3.8-14.7 10.2-.4 1.8-.4 3.7.5 5.3.9 1.6 2.9 2.5 4.6 1.8-1.9 2.4-3.3 5.4-2.8 8.4.6 3 3.8 5.5 6.7 4.6-2 3.4-4.1 7-4.5 11-.4 4 1.4 8.5 5.1 9.9 3.3 1.3 7.1-.1 9.9-2.2 5.7-4.2 9.1-11.2 9-18.2 1.5 3.2 6 4.1 9.1 2.5 3.1-1.6 4.9-5.1 5.4-8.6s-.2-7-.8-10.5c3.5 1 6.9.1 8.5-2.1 1.8-2.6.5-5.9-.2-7.6-1.4-3.7-4.2-5.7-5.4-6.4 1.4-.1 4.6-.5 6.1-2.7 2.2-3.2.4-9.7-5.9-14.3-6.2-.2-12.4-.4-18.6-.5l-12 19.4z"/></defs><use xlink:href="#a" overflow="visible" fill="#F5982D"/><clipPath id="b"><use xlink:href="#a" overflow="visible"/></clipPath><g clip-path="url(#b)"><path fill="#F4792C" d="M139.9 448.4c6.6-9.6 10-20.9 13.2-32 1.6-5.6 3.2-11.3 5.2-16.8 2.1-5.8 4.6-11.5 7.6-16.9 3.4-6.2 7.3-12 11.8-17.4.8-1-.6-2.3-1.4-1.3-7.9 9.7-14.2 20.5-18.7 32.1-4.3 11-6.7 22.6-10.6 33.7-2.2 6.2-5 12.2-8.7 17.7-.8 1 .9 2 1.6.9z"/></g><g clip-path="url(#b)"><path fill="#F4792C" d="M146 434c-1.2-.2-2.2.1-3.3.3-1.2.3-2.4.7-3.5 1-2.3.8-4.6 1.7-6.8 2.7-.5.2-.6.9-.3 1.4.3.5.9.5 1.4.3 2-.9 4-1.7 6.1-2.4l3-.9c1-.3 2-.7 3.1-.5.5.1 1-.2 1.2-.7-.1-.5-.4-1.2-.9-1.2z"/></g><g clip-path="url(#b)"><path fill="#F4792C" d="M147.6 429.1c-6.2-.4-12.4 1.2-17.6 4.4-1.1.7-.1 2.3 1 1.7 5-3 10.8-4.4 16.6-4.1 1.3.1 1.2-1.9 0-2z"/></g><g clip-path="url(#b)"><path fill="#F4792C" d="M153.5 410.4c-8.5.2-16.7 3.8-23.3 9.1-1 .8 0 2.5 1 1.7 6.3-5.1 14.1-8.6 22.3-8.8 1.3-.1 1.3-2 0-2z"/></g><g clip-path="url(#b)"><path fill="#F4792C" d="M168 427.9c-.3-10.1-3.9-19.9-10.2-27.8-.8-1-2.5 0-1.7 1 6.1 7.6 9.6 17.1 9.9 26.8.1 1.3 2 1.3 2 0z"/></g><g clip-path="url(#b)"><path fill="#F4792C" d="M171.5 426.9c-.5-11.5-4.7-22.8-12-31.7-.8-1-2.5.1-1.7 1 7.1 8.7 11.2 19.5 11.7 30.7.1 1.3 2.1 1.3 2 0z"/></g><defs><path id="c" d="m90.6 381.2 5.3 4.7-9.1.7c-5.5 7.6-8.2 14-8.2 14s26.8 15.2 50.9 7.2c5.6-1.9 10.8-4.2 15.4-6.8l2.8-10.3 2.4 7.1c12-8.2 18.5-18.2 15.8-26.4-4-12-26.8-15.2-50.9-7.2-8.5 2.8-18.9 11.3-24.4 17z"/></defs><use xlink:href="#c" overflow="visible" fill="#ED2480"/><clipPath id="d"><use xlink:href="#c" overflow="visible"/></clipPath><g clip-path="url(#d)"><path fill="#BE3894" d="m74.66 400.753 90.856-30.388.666 1.992-90.856 30.388z"/></g><g clip-path="url(#d)"><path fill="#BE3894" d="m92.468 371.17 1.135-1.767 26 16.695-1.135 1.767z"/></g><g clip-path="url(#d)"><path fill="#BE3894" d="m100.427 368.54 1.135-1.767 26.002 16.695-1.134 1.768z"/></g><g clip-path="url(#d)"><path fill="#BE3894" d="m132.167 357.9 1.135-1.767 26 16.696-1.135 1.767z"/></g><g clip-path="url(#d)"><path fill="#BE3894" d="m133.052 409.338 5.688-29.457 2.062.399-5.688 29.457z"/></g><g clip-path="url(#d)"><path fill="#BE3894" d="m128.603 410.768 5.688-29.457 2.062.398-5.688 29.457z"/></g><g clip-path="url(#d)"><path fill="#BE3894" d="m96.105 421.628 5.688-29.457 2.062.398-5.688 29.457z"/></g><g><path fill="#5986C5" d="M355.4 158.4c-9-3.9-18.2-10.1-21.6-19.8-3.1-8.8-.9-19.8 8.6-23.3 4.2-1.5 9.1-1.4 12.7 1.4.5-.6 1-1.3 1.5-1.9-5.7-3.1-10.2-9.4-8.9-16.1 1.2-6 6.6-11 13-9.3 3.1.9 5.8 3.1 6.6 6.4.4 1.5 2.6.9 2.3-.6-1-4.9-1.9-9.9-1.6-14.9.2-4.6 1.6-9.8 5.2-12.9 4.1-3.6 9.3-1 12.6 2.5 3.2 3.4 4.9 8 5.3 12.6.5 6-1.2 12-3.9 17.4-.4.8.1 1.8 1 1.8 6.7 0 13 4.9 13.1 12 .1 6.6-5.2 11.3-11.3 12.5-1.9.4-3.8.4-5.7.2-1.4-.2-1.6 2-.3 2.4 3.1.9 5.9 2.6 8.2 4.7 2.5 2.3 3.6 5.4 3.4 8.8-.1 1.5 2.3 1.5 2.4 0 .3-3.8-1.1-7.6-3.8-10.3-2.7-2.6-5.9-4.6-9.5-5.6l-.3 2.4c5.5.7 11.6-1.1 15.5-5.1 5-5.2 5.2-13.7.5-19.1-3-3.4-7.5-5.2-12-5.2.3.6.7 1.2 1 1.8 5-10.1 6.5-22.8-1.1-32.1-3.3-4-8.9-7.4-14.2-5-4.8 2.2-7.3 7.9-8.1 12.9-1 6.4.1 12.8 1.4 19 .8-.2 1.5-.4 2.3-.6-1.8-7-10.4-10.4-16.7-7.3-7.1 3.4-9.4 12.5-6.5 19.4 1.8 4.1 5 7.5 9 9.6 1.1.6 2.6-1 1.5-1.9-7.5-6-19.1-2.8-23.9 5.1-6 9.8-2.1 22.3 5.4 30 4.4 4.6 10 7.8 15.8 10.4 1.3.4 2.5-1.7 1.1-2.3z"/><path fill="#5986C5" d="M377.4 66.6c5.6 11.9 3 25.6-1.8 37.3-5.1 12.4-12.6 23.6-17.1 36.3-2.5 7.1-4 14.5-3.5 22.1.1 1.5 2.5 1.5 2.4 0-.9-14 5.2-26.9 11.5-39 6.1-11.8 12.6-23.7 13.9-37.2.7-7.1-.2-14.2-3.3-20.7-.7-1.4-2.8-.2-2.1 1.2z"/><path fill="#5986C5" d="M372.9 112c-3.4-3.2-6.5-6.8-9.1-10.8-2.6-3.9-5.2-8.3-6.1-12.9-.3-1.5-2.6-.9-2.3.6.9 4.8 3.7 9.4 6.4 13.4 2.7 4.1 5.9 7.9 9.5 11.2 1.1 1.3 2.8-.4 1.6-1.5zM369.6 118.9c-8.7-7.3-15-17-17.5-28.1-.3-1.5-2.7-.9-2.3.6 2.6 11.5 9.1 21.7 18.1 29.2 1.1 1 2.9-.7 1.7-1.7z"/><path fill="#5986C5" d="M369.9 120.1c12.1 2.3 24.5-3.9 29.6-15.1.6-1.4-1.4-2.6-2.1-1.2-4.6 10.2-15.8 16.2-26.9 14-1.5-.3-2.1 2-.6 2.3zM359.8 140.3c11.4 2.8 23.7.6 33.2-6.3 1.2-.9 0-3-1.2-2.1-9 6.5-20.5 8.8-31.4 6.1-1.5-.3-2.1 2-.6 2.3z"/><g><path fill="#5986C5" d="M361.7 136.3c9.6 1.8 19.6.1 28-4.9 1.3-.8.1-2.9-1.2-2.1-7.9 4.6-17.2 6.3-26.2 4.6-1.5-.2-2.1 2.1-.6 2.4z"/></g><g><defs><path id="e" d="M360.3 181.7c-2.3-11.1 2.8-23.5 12.3-29.7 5.3-3.4 11.6-5 17.6-7.1 6-2.1 12-4.9 15.8-10 4.5-6.2 4.7-14.5 7.9-21.4 3.4-7.3 10-12.8 17.6-15.7 7.5-2.9 16.4-2.6 24.4-1.5-7.8 2.4-13.3 10.7-12.3 18.8.5 4.1 2.3 7.8 3.3 11.8.9 4 .9 8.1.3 12.2-.4 2.6-1.2 5.3-2.7 7.5-1.9 2.8-4.8 4.7-6.8 7.4-4.8 6.5-3.2 15.4-3.3 23.4-.3 12.2-5.4 24.2-14.2 32.6-8.7 8.5-21 13.2-33.2 12.7l-26.7-41z"/></defs><use xlink:href="#e" overflow="visible" fill="#F4B027"/><clipPath id="f"><use xlink:href="#e" overflow="visible"/></clipPath><g clip-path="url(#f)"><path fill="#F5982D" d="M465.1 95.3c-12.3-1.2-23.8 5.7-30.4 15.8-3.2 4.9-5.4 10.4-6.6 16.2-1.2 5.9-1.4 11.9-2.6 17.8-.6 2.9-1.4 5.8-2.7 8.5-1.4 2.8-3.2 5.3-5.4 7.5-4.3 4.5-9.7 7.8-15.2 10.6-6.3 3.3-12.8 6.1-18.7 10.1-5.6 3.7-10.4 8.6-14.2 14.1-6.8 9.7-10.8 21.4-11.4 33.2-.1 1.5-.1 3-.1 4.5 0 .6.9.7.9.1-.1-11.8 3-23.6 9.1-33.8 3.4-5.6 7.6-10.7 12.7-14.8 5.5-4.4 11.9-7.4 18.2-10.6 10.6-5.3 21.9-11.8 26.1-23.6 2-5.5 2.4-11.4 3.1-17.2.7-5.9 2-11.7 4.6-17.1 2.5-5.4 6.2-10.3 11-13.9 4.8-3.7 10.7-6.2 16.9-6.6 1.5-.1 3.1-.1 4.6.1.6.1.7-.8.1-.9z"/><path fill="#F5982D" d="M430.3 122.3c3-.4 5.9-1.1 8.8-2 2.8-.9 5.6-2.1 8.2-3.5 1.5-.8 3-1.7 4.4-2.7.2-.1.2-.5.1-.6-.2-.2-.4-.2-.6-.1-2.4 1.7-5 3.1-7.7 4.3-2.7 1.2-5.5 2.1-8.3 2.8-1.6.4-3.3.7-4.9.9-.7 0-.6.9 0 .9zM428.7 128.3c3.3-.4 6.6-.8 9.9-1.3 3.3-.5 6.6-1.3 9.7-2.3 1.8-.6 3.5-1.2 5.2-2 .5-.2.1-1.1-.4-.8-3 1.4-6.1 2.4-9.3 3.1-3.2.8-6.5 1.3-9.8 1.7-1.8.2-3.7.5-5.5.7-.5.1-.4 1 .2.9zM420.2 159.5c3.4 1.2 6.9 2 10.4 2.4 3.5.4 7.1.3 10.7-.2 2-.3 3.9-.7 5.9-1.3.2-.1.4-.3.4-.5s-.3-.4-.5-.4c-3.4 1-6.9 1.5-10.4 1.7-3.5.1-7-.2-10.4-.9-1.9-.4-3.8-.9-5.7-1.6-.6-.3-.9.6-.4.8zM412.6 166.7c3.1 2.3 6.6 3.9 10.2 5 3.9 1.2 8 1.8 12 2 2.4.2 4.7.2 7.1.3.2 0 .5-.1.5-.4 0-.2-.2-.5-.4-.5-4.2-.1-8.3-.2-12.4-.8-3.8-.6-7.6-1.5-11.1-3.1-1.9-.9-3.7-1.9-5.4-3.2-.4-.4-.9.4-.5.7zM382.1 143.8c-.3 4.7-.5 9.5-.1 14.2.4 4.7 1.4 9.4 3.6 13.7 1.2 2.4 2.8 4.6 4.7 6.4.2.2.4.2.6.1.2-.1.2-.5.1-.6-3.4-3.2-5.6-7.4-6.8-11.9-1.2-4.5-1.6-9.3-1.6-14 0-2.6.1-5.2.3-7.8.2-.6-.7-.7-.8-.1zM370.7 149.7c.3 4.9 1 9.8 2.2 14.5 1.1 4.4 2.7 8.7 5.2 12.6 1.3 2.1 3 4 4.9 5.5.5.4 1-.4.5-.7-3.5-2.6-5.8-6.5-7.4-10.4-1.8-4.3-2.9-8.8-3.7-13.4-.4-2.7-.7-5.4-.9-8.1 0-.2-.3-.4-.5-.4-.1-.1-.3.1-.3.4zM398.5 136.7c1.4 4.4 3.4 8.7 5.8 12.7 1.2 1.9 2.4 3.8 3.8 5.6 1.1 1.5 2.4 2.9 3.8 4.1 1.6 1.3 3.5 2.3 5.5 2.7.2 0 .5-.2.5-.4 0-.3-.2-.4-.4-.5-3.5-.7-6.3-3.4-8.4-6.1-2.7-3.5-5-7.3-6.9-11.3-1.1-2.3-2-4.7-2.8-7.1-.1-.2-.4-.3-.6-.2-.3 0-.3.3-.3.5z"/></g></g><g><defs><path id="g" d="m471.3 191.7-8-3.3 10.2-4.4c3.3-10.9 3.9-19.4 3.9-19.4s-37.1-6.7-61.6 12.3c-5.7 4.4-10.7 9.2-15 14.1l1 13-5.6-7.2c-10.5 14.2-14 28.5-7.6 36.8 9.5 12.2 37.1 6.7 61.6-12.3 8.6-6.8 17.1-20.7 21.1-29.6z"/></defs><use xlink:href="#g" overflow="visible" fill="#EE4993"/><clipPath id="h"><use xlink:href="#g" overflow="visible"/></clipPath><g clip-path="url(#h)"><path fill="#ED1C80" d="m387.814 232.46 92.43-71.744 1.595 2.054-92.43 71.744z"/></g><g clip-path="url(#h)"><path fill="#ED1C80" d="m435.87 197.734.602-2.53 36.679 8.725-.602 2.53z"/></g><g clip-path="url(#h)"><path fill="#ED1C80" d="m427.904 204.055.601-2.53 36.679 8.724-.602 2.53z"/></g><g clip-path="url(#h)"><path fill="#ED1C80" d="m395.524 229.116.602-2.53 36.678 8.724-.602 2.53z"/></g><g clip-path="url(#h)"><path fill="#ED1C80" d="m408.554 176.874 2.572-.38 5.348 36.208-2.573.38z"/></g><g clip-path="url(#h)"><path fill="#ED1C80" d="m413.059 173.378 2.572-.38 5.347 36.209-2.572.38z"/></g><g clip-path="url(#h)"><path fill="#ED1C80" d="m446.155 147.675 2.572-.38 5.347 36.208-2.572.38z"/></g></g></g><g><path fill="#725BA7" d="M540.9 469H151.1c-3.8 0-7.2-2.3-8.6-5.9l-6.2-16.2h419.4l-6.2 16.2c-1.4 3.6-4.8 5.9-8.6 5.9z"/><path fill="#674199" d="M384.8 458h-77.6c-2 0-3.6-1.6-3.6-3.6V447h84.8v7.4c0 2-1.6 3.6-3.6 3.6z"/><path fill="#5F3494" d="M530.6 447H161.4V227.5c0-7.3 5.9-13.2 13.2-13.2h342.8c7.3 0 13.2 5.9 13.2 13.2V447z"/><g fill="#725BA7"><path d="M337.8 223.4c0 1.9-1.5 3.4-3.4 3.4s-3.4-1.5-3.4-3.4 1.5-3.4 3.4-3.4 3.4 1.6 3.4 3.4zM357.6 226.8h-13.2c-1.9 0-3.4-1.5-3.4-3.4s1.5-3.4 3.4-3.4h13.2c1.9 0 3.4 1.5 3.4 3.4s-1.5 3.4-3.4 3.4z"/></g><path fill="#FFF" d="M176.1 232.5h339.8v206.3H176.1z"/></g><g><path fill="#784EA0" d="M324.5 397.8c3.6 1.2 7 2.7 10.5 4.1 5.1-3.7 9.8-8 15.3-11.2 10.4-6.2 23.3-8.1 35.1-5.2 6.3 1.6 12.4 4.5 18.9 4.6 7.5.1 14.5-3.7 21.5-6.3 1.2-.4 2.4-.8 3.5-1.2-2.2-1.6-4.4-3.1-6.6-4.5-12.7-8.3-27.5-14.5-42.7-13.9-10.4.4-20.5 3.9-30.8 4.7-10.9.9-21.8-1-32.7-1.4-6.9-.3-14 .1-20.6 2v25.2c9.6-1 19.4 0 28.6 3.1z"/><path fill="#DCE9F7" d="M316.5 367.4c10.9.5 21.8 2.4 32.7 1.4 10.4-.9 20.4-4.4 30.8-4.7 15.2-.5 30 5.6 42.7 13.9l6.6 4.5c15.3-4.8 31.9-4.9 47.7-1.6 11.5 2.4 22.5 6.5 33.1 11.6v-90c0-1.5-1.2-2.8-2.8-2.8H298.7c-1.5 0-2.8 1.2-2.8 2.8v66.8c6.5-1.8 13.7-2.2 20.6-1.9z"/><path fill="#784EA0" d="M468.3 366.9c-1.4-.6-2.9-.9-4.3-.9.5-2.3-.8-4.8-3.3-5.6-2.2-.8-4.8.3-5.9 2.3-.3.5-.4 1-.5 1.6-3.7-1-7.7.6-9.6 3.9h-.1c-2-.9-4.3-.3-5.8 1.2-1.4-2.2-4.3-2.7-6.6-1.8-2.5 1.1-4 3.5-4.9 5.9-.1.3-.1.3-.5.3-.2 0-.4.1-.6.1-.4.1-.8.3-1.2.5-.7.5-1.3 1.2-1.7 2-.3.7-.4 1.4-.4 2.1-.9-.1-2.7 0-4.4 1-2.5 1.5-3.9 4.7-3.6 8.1 11.6 3.4 23.3 6.7 34.9 10.1l21.7-10.5 2.1-6.6c2.5-5.2 0-11.4-5.3-13.7z"/><path fill="#967DB9" d="M445.8 381.8c.9-.8 1.9-.9 2.3-.9 2-.2 3.9 1 3.9 1 2.5-8.1 9.3-3.7 9.3-3.7-1.2-7.3 5.5-8.4 5.5-8.4.6 0 1.3 0 2 .1 1.7.3 3.2 1.1 4.3 2.1 0-.1 0-.3.1-.4.6-3.2 3.6-5.3 6.8-4.7.3 0 .5.1.8.2 1.9-2.8 5.4-4.5 8.9-3.8 4.8.9 8 5.5 7.1 10.3 0 .1 0 .2-.1.3.8-.1 1.7-.1 2.6 0 1.4.3 6.8 3.9 6.5 9.2 0 .6-.2 1.5-.5 2.5.6.3 3 1.8 4.1 4.9 1.1 3.1.1 5.8-.2 6.4l-64.7-11.8c.2-.2 0-2.1 1.3-3.3z"/><path fill="#967DB9" d="M477 381c-15.7-3.3-32.4-3.3-47.7 1.6-1.2.4-2.4.8-3.5 1.2-7 2.6-14 6.3-21.5 6.3-6.5-.1-12.6-3-18.9-4.6-11.8-2.9-24.7-1-35.1 5.2-5.4 3.2-10.1 7.5-15.3 11.2 6 2.6 12 5.2 18.4 6.3 11.6 2.1 23.6-.7 35.4-.7 18.9 0 37.4 7.7 51.2 20.5h70.1v-35.5c-10.6-5-21.7-9.1-33.1-11.5z"/><path fill="#C3ACD3" d="M388.7 407.5c-11.8 0-23.8 2.8-35.4.7-6.4-1.2-12.4-3.8-18.4-6.3-3.5-1.5-6.9-3-10.5-4.1-9.2-3-19-4.1-28.6-3.2V428h144.1c-13.7-12.7-32.3-20.5-51.2-20.5z"/><path fill="#C3ACD3" d="m342.2 405.2 21 18.3 19.8-.3 3.9-4.2c3.6-3.2 3.9-8.7.7-12.3-.8-.9-1.8-1.6-2.9-2.1 1.2-1.6 1-3.9-.5-5.3-1.4-1.3-3.6-1.5-5.2-.3-.4.3-.7.6-.9 1-2.4-2.1-5.9-2.2-8.5-.4-1.2-1.4-3.1-1.7-4.7-1.1-.3-2.1-2.3-3.5-4.3-3.6-2.2-.1-4.2 1.2-5.7 2.7-.2.2-.2.2-.4.1-.2 0-.3-.1-.5-.1-.4-.1-.7-.1-1.1 0-.7.1-1.4.4-2 .9-.5.4-.8.9-1 1.4-.1-.1-.2-.1-.3-.2-3.1-1.5-6.7.6-7.1 4.1l-.3 1.4z"/><g><g fill="#A5DEF5"><path d="M227.5 392.3h-2.6c-1.1 0-2-.8-2.2-2-.2-1.5.8-2.7 2.1-2.7h2.6c1.1 0 2 .8 2.2 2 .3 1.4-.8 2.7-2.1 2.7zM253.2 392.3h-19c-1.1 0-2-.8-2.2-2-.2-1.5.8-2.7 2.1-2.7h19c1.1 0 2 .8 2.2 2 .2 1.4-.8 2.7-2.1 2.7zM219.4 390.3c-.2 1.1-1.1 2-2.2 2h-33.1c-1.1 0-2-.8-2.2-2-.2-1.5.8-2.7 2.1-2.7h33.2c1.4 0 2.4 1.3 2.2 2.7zM286.8 390.3c-.2 1.1-1.1 2-2.2 2H259c-1.1 0-2-.8-2.2-2-.2-1.5.8-2.7 2.1-2.7h25.7c1.4 0 2.4 1.3 2.2 2.7zM184.1 397.4h4.4c1.1 0 2 .8 2.2 2 .2 1.5-.8 2.7-2.1 2.7h-4.5c-1.2 0-2.2-1-2.2-2.3.1-1.4 1.1-2.4 2.2-2.4zM246.5 397.4h38.1c1.1 0 2 .8 2.2 2 .2 1.5-.8 2.7-2.1 2.7h-38.1c-1.2 0-2.2-1-2.2-2.3 0-1.4.9-2.4 2.1-2.4zM241.4 399.7c0 1.3-1 2.3-2.2 2.3h-42.6c-1.2 0-2.2-1-2.2-2.3 0-1.3 1-2.3 2.2-2.3h42.6c1.2 0 2.2 1 2.2 2.3z"/></g><path fill="#A5DEF5" d="M182.2 406.9h104.6V428H182.2z"/></g><g fill="#FFF"><path d="M366 351.8c0-3.4 2.8-6.2 6.2-6.2.9 0 1.8.2 2.6.6 1.1-1.9 3.2-3.1 5.6-3.1 2.1 0 4 1 5.2 2.6-1.1-.8-2.4-1.2-3.8-1.2-2.4 0-4.4 1.3-5.6 3.1-.8-.4-1.6-.6-2.6-.6-3.4 0-6.2 2.8-6.2 6.2 0 1.9.4 3.2 1 4.1-1.3-.9-2.4-2.4-2.4-5.5z"/><path d="M373.5 347c.9 0 1.8.2 2.6.6 1.1-1.9 3.2-3.1 5.6-3.1 1.4 0 2.7.5 3.8 1.2 1.2.9 2.1 2.2 2.5 3.7 1.1.3 2.1 1 2.7 1.9.4.7.7 1.5.7 2.4 0 2.4-2 4.4-4.4 4.4h-15.8c-.7 0-1.8-.1-2.8-.7-.6-.9-1-2.2-1-4.1 0-3.6 2.7-6.3 6.1-6.3zM482.1 318.8v-.8c-.1-1.3-.6-2.5-1.7-3.3-.9-.6-2-.8-3.1-.8-.8 0-1.6.2-2.3.5-1-2.9-3.8-5-7.1-5-1.3 0-2.5.3-3.5.9 1.3-1 2.9-1.7 4.7-1.7 3.3 0 6.1 2.1 7.1 5 .7-.3 1.5-.5 2.3-.5 1.1 0 2.2.2 3.1.8 1.1.7 1.6 2 1.7 3.3 0 .6 0 1.2-.3 1.8-.2-.1-.5-.2-.9-.2z"/><path d="M458.6 317.3c.5-.5 1.2-.9 1.9-1 .2-.1.5-.1.8-.1h.4v-.1c0-2.4 1.1-4.5 2.8-5.8 1-.6 2.2-.9 3.5-.9 3.3 0 6.1 2.1 7.1 5 .7-.3 1.5-.5 2.3-.5 1.1 0 2.2.2 3.1.8 1.1.7 1.6 2 1.7 3.3v.8c.3 0 .7.1.9.2 1 .4 1.5 1.4 1.5 2.3 0 1.1-.7 2.1-1.8 2.4-.2.1-.4.1-.7.1h-20.8c-2.1 0-3.8-1.7-3.8-3.8-.1-1.1.4-2 1.1-2.7z"/><g><path d="M439.1 336v-.4c0-.6-.3-1.3-.9-1.6-.5-.3-1-.4-1.6-.4-.4 0-.8.1-1.2.3-.5-1.5-1.9-2.5-3.6-2.5-.6 0-1.2.2-1.8.4.6-.5 1.5-.8 2.4-.8 1.7 0 3.1 1.1 3.6 2.5.3-.2.7-.3 1.2-.3s1.1.1 1.6.4c.6.4.8 1 .9 1.6 0 .3 0 .6-.1.9-.2-.1-.3-.1-.5-.1z"/><path d="M427.3 335.2c.3-.3.6-.4.9-.5H428.8c0-1.2.5-2.2 1.4-2.9.5-.3 1.1-.4 1.8-.4 1.7 0 3.1 1.1 3.6 2.5.3-.2.7-.3 1.2-.3s1.1.1 1.6.4c.6.4.8 1 .9 1.6v.4c.2 0 .3 0 .5.1.5.2.7.7.7 1.2 0 .6-.4 1-.9 1.2h-10.8c-1.1 0-1.9-.9-1.9-1.9-.2-.6 0-1.1.4-1.4z"/></g><g><path d="M325.9 325.5v-.8c-.1-1.3-.6-2.6-1.7-3.3-.9-.6-2.1-.8-3.2-.8-.8 0-1.6.2-2.3.5-1-3-3.9-5.1-7.2-5.1-1.3 0-2.5.3-3.6.9 1.3-1.1 3-1.7 4.8-1.7 3.3 0 6.1 2.1 7.2 5.1.7-.3 1.5-.5 2.3-.5 1.1 0 2.2.2 3.2.8 1.1.7 1.7 2 1.7 3.3 0 .6 0 1.3-.3 1.8-.3-.1-.6-.2-.9-.2z"/><path d="M302 324c.5-.5 1.2-.9 1.9-1 .3-.1.5-.1.8-.1h.4v-.1c0-2.4 1.1-4.5 2.8-5.9 1.1-.6 2.3-.9 3.6-.9 3.3 0 6.1 2.1 7.2 5.1.7-.3 1.5-.5 2.3-.5 1.1 0 2.2.2 3.2.8 1.1.7 1.7 2 1.7 3.3v.8c.3 0 .7.1.9.2 1 .4 1.5 1.4 1.5 2.4 0 1.1-.8 2.1-1.8 2.4-.2.1-.5.1-.7.1h-21.1c-2.1 0-3.8-1.7-3.8-3.8 0-1.2.4-2.1 1.1-2.8z"/></g></g><path fill="#E4D7EA" d="M500.6 290.6H393v-18.9h107.7c5.2 0 9.5 4.2 9.5 9.5-.1 5.1-4.4 9.4-9.6 9.4z"/></g><g><path fill="#ED1C80" d="M186.2 232.5h329.7v28.4H186.2z"/><path fill="#F390BB" d="M441.4 250.8H309c-2.3 0-4.1-1.8-4.1-4.1s1.8-4.1 4.1-4.1h132.4c2.3 0 4.1 1.8 4.1 4.1s-1.9 4.1-4.1 4.1z"/><path fill="#EE4993" d="M495.4 250.8h-39.1c-2.3 0-4.1-1.8-4.1-4.1s1.8-4.1 4.1-4.1h39.1c2.3 0 4.1 1.8 4.1 4.1s-1.8 4.1-4.1 4.1z"/></g><path fill="#5397D1" d="M383.3 379.4H176.1V232.5h215.6V371c0 4.6-3.8 8.4-8.4 8.4z"/><g><path fill="#5397D1" d="M371.5 367.6H129c-4.7 0-8.4-3.8-8.4-8.4V156.3c0-4.7 3.8-8.4 8.4-8.4h242.5c4.7 0 8.4 3.8 8.4 8.4v202.9c0 4.7-3.8 8.4-8.4 8.4z"/><path fill="#DCE9F7" d="M185.3 172.3h126.6c4.9 0 9.3-2.7 11.5-7l1.1-2.2c1-2.1 3.2-3.3 5.5-3.3h43.8c3.4 0 6.1 2.7 6.1 6.1v190.9c0 6.1-4.9 11-11 11H192.8c-4.2 0-7.6-3.4-7.6-7.6V172.3z"/><path fill="#FFF" d="M120.6 172.3h126.6c4.9 0 9.3-2.7 11.5-7l1.1-2.2c1-2.1 3.2-3.3 5.5-3.3h43.8c3.4 0 6.1 2.7 6.1 6.1v201.8H128.1c-4.2 0-7.6-3.4-7.6-7.6V172.3z"/></g><g fill="#4661AD"><circle cx="132" cy="160.1" r="4.5"/><circle cx="149.1" cy="160.1" r="4.5"/><path d="M170.8 160.1c0 2.5-2 4.5-4.5 4.5s-4.5-2-4.5-4.5 2-4.5 4.5-4.5 4.5 2 4.5 4.5z"/></g><g fill="#ADD8F4"><path d="M330.1 237.3h-14.9v-7.2h14.9c2 0 3.6 1.6 3.6 3.6s-1.6 3.6-3.6 3.6zM355.8 237.3h-14.4c-2 0-3.6-1.6-3.6-3.6s1.6-3.6 3.6-3.6h14.4c2 0 3.6 1.6 3.6 3.6s-1.6 3.6-3.6 3.6zM355.8 281.4h-40.6v-7.2h40.6c2 0 3.6 1.6 3.6 3.6s-1.6 3.6-3.6 3.6zM320.9 325.4h-5.7v-7.2h5.7c2 0 3.6 1.6 3.6 3.6.1 2-1.6 3.6-3.6 3.6zM355.8 325.4h-22.1c-2 0-3.6-1.6-3.6-3.6s1.6-3.6 3.6-3.6h22.1c2 0 3.6 1.6 3.6 3.6s-1.6 3.6-3.6 3.6z"/><g><path d="M353.7 345.1h-38.6v-11.4h38.6c3.2 0 5.7 2.6 5.7 5.7s-2.5 5.7-5.7 5.7zM353.7 301h-38.6v-11.4h38.6c3.2 0 5.7 2.6 5.7 5.7 0 3.2-2.5 5.7-5.7 5.7zM353.7 257h-38.6v-11.4h38.6c3.2 0 5.7 2.6 5.7 5.7s-2.5 5.7-5.7 5.7z"/></g></g><g><path fill="#A8DEE9" d="M130.5 188.8v15.1c0 1.3 1.1 2.4 2.4 2.4h157.5v-19.8H132.9c-1.3-.1-2.4 1-2.4 2.3z"/><path fill="#79D1F1" d="M302.9 186.4H285c-1.3 0-2.4 1.1-2.4 2.4v15.1c0 1.3 1.1 2.4 2.4 2.4h17.9c1.3 0 2.4-1.1 2.4-2.4v-15.1c-.1-1.3-1.1-2.4-2.4-2.4z"/><path fill="#FFF" d="M296.7 199.1c-2.4 2.4-6.2 2.4-8.6 0-2.4-2.4-2.4-6.2 0-8.6 2.4-2.4 6.2-2.4 8.6 0 2.4 2.5 2.4 6.3 0 8.6zm-7-7c-1.5 1.5-1.5 4.1 0 5.6s4.1 1.5 5.6 0 1.5-4.1 0-5.6c-1.6-1.6-4.1-1.6-5.6 0z"/><path fill="#FFF" d="M301.1 203.5c-.4.4-1.1.4-1.5 0l-4.1-4.1c-.4-.4-.4-1.1 0-1.5.4-.4 1.1-.4 1.5 0l4.1 4.1c.4.5.4 1.1 0 1.5z"/><g fill="#FFF"><path d="M275.6 196.3c0 1.7-1.4 3.1-3.1 3.1-1.7 0-3.1-1.4-3.1-3.1 0-1.7 1.4-3.1 3.1-3.1 1.7 0 3.1 1.4 3.1 3.1zM259.6 196.3c0 1.7-1.4 3.1-3.1 3.1-1.7 0-3.1-1.4-3.1-3.1 0-1.7 1.4-3.1 3.1-3.1 1.7 0 3.1 1.4 3.1 3.1zM243.7 196.3c0 1.7-1.4 3.1-3.1 3.1-1.7 0-3.1-1.4-3.1-3.1 0-1.7 1.4-3.1 3.1-3.1 1.7 0 3.1 1.4 3.1 3.1z"/></g><g><path fill="#A8DEE9" d="M156.5 215h-24.1c-1 0-1.8-.8-1.8-1.8s.8-1.8 1.8-1.8h24.1c1 0 1.8.8 1.8 1.8.1 1-.7 1.8-1.8 1.8zM192.6 215h-24.1c-1 0-1.8-.8-1.8-1.8s.8-1.8 1.8-1.8h24.1c1 0 1.8.8 1.8 1.8.1 1-.8 1.8-1.8 1.8zM228.7 215h-24.1c-1 0-1.8-.8-1.8-1.8s.8-1.8 1.8-1.8h24.1c1 0 1.8.8 1.8 1.8s-.8 1.8-1.8 1.8z"/></g></g><g><path fill="#F49BC2" d="M164.2 264.5h-33c-.4 0-.7-.3-.7-.7v-33c0-.4.3-.7.7-.7h33c.4 0 .7.3.7.7v33c0 .3-.3.7-.7.7z"/><path fill="#ED2480" d="M204.9 237.3h-29.8c-2 0-3.6-1.6-3.6-3.6s1.6-3.6 3.6-3.6h29.8c2 0 3.6 1.6 3.6 3.6s-1.6 3.6-3.6 3.6zM253.8 237.3h-36.6c-2 0-3.6-1.6-3.6-3.6s1.6-3.6 3.6-3.6h36.6c2 0 3.6 1.6 3.6 3.6s-1.6 3.6-3.6 3.6z"/><path fill="#F49BC2" d="M193.9 249h-20.5c-.9 0-1.7-.6-1.8-1.5-.2-1.1.7-2 1.7-2h20.5c.9 0 1.7.6 1.8 1.5.1 1.1-.7 2-1.7 2zM243.7 249h-43.8c-.9 0-1.7-.6-1.8-1.5-.2-1.1.7-2 1.7-2h43.8c.9 0 1.7.6 1.8 1.5.1 1.1-.7 2-1.7 2zM303.5 257h-22.2c-.9 0-1.7-.6-1.8-1.5-.2-1.1.7-2 1.7-2h22.2c.9 0 1.7.6 1.8 1.5.2 1-.7 2-1.7 2zM274.6 257h-49.9c-.9 0-1.7-.6-1.8-1.5-.2-1.1.7-2 1.7-2h49.9c.9 0 1.7.6 1.8 1.5.2 1-.7 2-1.7 2zM217 257h-43.7c-.9 0-1.7-.6-1.8-1.5-.2-1.1.7-2 1.7-2h43.7c.9 0 1.7.6 1.8 1.5.2 1-.6 2-1.7 2z"/><g><path fill="#89C1E9" d="M164.2 308.5h-33c-.4 0-.7-.3-.7-.7v-33c0-.4.3-.7.7-.7h33c.4 0 .7.3.7.7v33c0 .4-.3.7-.7.7z"/><path fill="#5397D1" d="M231.5 281.4h-56.4c-2 0-3.6-1.6-3.6-3.6s1.6-3.6 3.6-3.6h56.4c2 0 3.6 1.6 3.6 3.6.1 2-1.6 3.6-3.6 3.6zM250.7 281.4H243c-2 0-3.6-1.6-3.6-3.6s1.6-3.6 3.6-3.6h7.7c2 0 3.6 1.6 3.6 3.6.1 2-1.6 3.6-3.6 3.6z"/><path fill="#89C1E9" d="M181.3 293.1h-8.1c-1 0-1.7-.8-1.7-1.7 0-1 .8-1.7 1.7-1.7h8.1c1 0 1.7.8 1.7 1.7 0 .9-.8 1.7-1.7 1.7zM281.8 293.1h-95.3c-1 0-1.7-.8-1.7-1.7 0-1 .8-1.7 1.7-1.7h95.3c1 0 1.7.8 1.7 1.7 0 .9-.7 1.7-1.7 1.7zM303.5 301h-90.4c-1 0-1.7-.8-1.7-1.7 0-1 .8-1.7 1.7-1.7h90.4c1 0 1.7.8 1.7 1.7 0 .9-.7 1.7-1.7 1.7zM206.8 301h-33.6c-1 0-1.7-.8-1.7-1.7 0-1 .8-1.7 1.7-1.7h33.6c1 0 1.7.8 1.7 1.7 0 .9-.7 1.7-1.7 1.7z"/></g><g><path fill="#5F3494" d="M164.2 352.6h-33c-.4 0-.7-.3-.7-.7v-33c0-.4.3-.7.7-.7h33c.4 0 .7.3.7.7v33c0 .4-.3.7-.7.7zM189 325.4h-13.9c-2 0-3.6-1.6-3.6-3.6s1.6-3.6 3.6-3.6H189c2 0 3.6 1.6 3.6 3.6s-1.6 3.6-3.6 3.6zM235.8 325.4h-35.4c-2 0-3.6-1.6-3.6-3.6s1.6-3.6 3.6-3.6h35.4c2 0 3.6 1.6 3.6 3.6s-1.6 3.6-3.6 3.6z"/><path fill="#725BA7" d="M207.3 337.1h-34.1c-1 0-1.7-.8-1.7-1.7 0-1 .8-1.7 1.7-1.7h34.1c1 0 1.7.8 1.7 1.7 0 1-.7 1.7-1.7 1.7zM261.7 337.1h-34.1c-1 0-1.7-.8-1.7-1.7 0-1 .8-1.7 1.7-1.7h34.1c1 0 1.7.8 1.7 1.7 0 1-.7 1.7-1.7 1.7zM221 337.1h-8.4c-1 0-1.7-.8-1.7-1.7 0-1 .8-1.7 1.7-1.7h8.4c1 0 1.7.8 1.7 1.7 0 1-.8 1.7-1.7 1.7zM303.5 345.1h-34.4c-1 0-1.7-.8-1.7-1.7 0-1 .8-1.7 1.7-1.7h34.4c1 0 1.7.8 1.7 1.7 0 .9-.7 1.7-1.7 1.7zM188.2 345.1h-15c-1 0-1.7-.8-1.7-1.7 0-1 .8-1.7 1.7-1.7h15c1 0 1.7.8 1.7 1.7 0 .9-.7 1.7-1.7 1.7zM258.3 345.1h-62.5c-1 0-1.7-.8-1.7-1.7 0-1 .8-1.7 1.7-1.7h62.5c1 0 1.7.8 1.7 1.7 0 .9-.7 1.7-1.7 1.7z"/></g></g><g><circle fill="#5A71B6" cx="315.2" cy="276.9" r="19.5"/><path fill="#4C59A7" d="M311.7 291.2c-.6 0-1.2-.2-1.6-.6-1-.9-1.1-2.4-.2-3.4l9.3-10.3-9.3-10.3c-.9-1-.8-2.5.2-3.4 1-.9 2.5-.8 3.4.2l10.8 11.9c.8.9.8 2.3 0 3.2l-10.8 11.9c-.5.5-1.1.8-1.8.8z"/></g><path fill="#5397D1" d="M335.2 165.9c0 2.2-1.8 4-4 4s-4-1.8-4-4 1.8-4 4-4 4 1.8 4 4z"/><g fill="#ED2480"><path d="M271.4 165.9c0 2.2-1.8 4-4 4s-4-1.8-4-4 1.8-4 4-4 4 1.8 4 4zM298.9 165h-24.3c-.7 0-1.3-.6-1.3-1.3 0-.7.6-1.3 1.3-1.3h24.3c.7 0 1.3.6 1.3 1.3 0 .7-.6 1.3-1.3 1.3zM289.9 169.3h-15.3c-.7 0-1.3-.6-1.3-1.3 0-.7.6-1.3 1.3-1.3h15.3c.7 0 1.3.6 1.3 1.3 0 .7-.5 1.3-1.3 1.3zM306.8 169.3h-13.1c-.7 0-1.3-.6-1.3-1.3 0-.7.6-1.3 1.3-1.3h13.1c.7 0 1.3.6 1.3 1.3 0 .7-.5 1.3-1.3 1.3z"/></g><g fill="#5397D1"><path d="M343.2 165H340c-.7 0-1.3-.6-1.3-1.3 0-.7.6-1.3 1.3-1.3h3.2c.7 0 1.3.6 1.3 1.3 0 .7-.6 1.3-1.3 1.3zM373.9 165h-26.5c-.7 0-1.3-.6-1.3-1.3 0-.7.6-1.3 1.3-1.3h26.5c.7 0 1.3.6 1.3 1.3 0 .7-.6 1.3-1.3 1.3zM351.3 169.3H340c-.7 0-1.3-.6-1.3-1.3 0-.7.6-1.3 1.3-1.3h11.3c.7 0 1.3.6 1.3 1.3 0 .7-.5 1.3-1.3 1.3zM371.3 169.3h-16.2c-.7 0-1.3-.6-1.3-1.3 0-.7.6-1.3 1.3-1.3h16.2c.7 0 1.3.6 1.3 1.3 0 .7-.6 1.3-1.3 1.3z"/></g></svg>