<svg version="1.0" xmlns="http://www.w3.org/2000/svg" viewBox="0 0 642 565" xml:space="preserve"><path fill="#FFF" d="M573.4 503.1c-3.2 0-6.4-.4-9.7-1.2-71.8-17.2-164.4-25.9-248.8-25.9-142.5 0-241.3 25.2-242.4 25.4-3.7.9-7.3 1.3-10.6 1.3-5.5 0-10.6-1.2-15.2-3.5-6.5-3.2-11.6-8.4-15.1-15.4-2.9-5.7-4.6-12.4-5-19.9l-.9-14.2 14.6-3.8-3-3.9c-1.4-1.8-2.7-3.6-3.7-5.4l-.2-.3c-3.6-6.5-5.4-13.8-5.4-21.7 0-14.2 5.6-26.3 15.9-34l.2-.1c6.6-4.9 14.7-7.4 24-7.4l63.3.9 23.8.1 35.3-.1h43.2l3.2.1h4.6l.7-.3c1.3-.7 2.3-1.5 3.1-2.5l.4-.5.1-.6c1.2-4.5 1.8-9.5 1.7-13.5-.1-5.9.9-10.9 3.1-15l.6-1.1-.3-1.2c-1-3.7-1.4-7.5-1.3-11.1l.1-3-2.9-.3c-1.7-.2-3.6-.3-5.1-.4h-.1c-15.8-1.1-37.6-8.2-47-24.3-4.2-7.3-7.6-19.5.5-36.3 3.9-8.2 8-17 8.9-20.6l.3-1.1-.5-1.1c-.2-.3-.4-.7-.6-1.1v-.1c-.3-.6-.6-1.1-.9-1.8l-.8-1.6h-.2l-2.2-5.8c-.4-1-9.3-25-4.6-62.5 3.2-25.7 12.5-48.1 26.9-64.7 18.8-21.7 45.8-34.1 80.5-36.9l2.9-.2v-.3H327v.4l2.9.2c34.6 2.7 61.7 15.2 80.5 36.9 14.4 16.7 23.7 39 26.9 64.7 2.7 21.8.8 39.1-1.2 49.7l-.6 2.8.8.2-3.3 9.5c-1.5 4.4-3.1 7.5-4.2 9.5l-.6 1.2-.5 1 .3 1.1c.9 3.7 5 12.5 8.9 20.7 8 16.8 4.7 29 .5 36.3-9.4 16.1-31.2 23.2-47 24.3h-.1c-1.4.1-3.4.2-5.1.4l-2.9.3.1 3c.1 3.7-.4 7.5-1.4 11.4l-.3 1.2.5 1.1c2 4 3 9 2.9 14.7-.1 4.3.7 9.7 1.9 14.4l.2.9.7.6c.5.5 1.1.9 1.8 1.2l.7.3 178.1-.7c11.2 0 21.2 4.1 28.9 11.9 7.7 7.8 11.8 17.7 11.8 28.8v53.4c0 11.9-4.9 22.1-13.7 28.8-6.2 4.3-13.4 6.7-21.1 6.7z"/><path fill="#071D23" d="M586.6 392c-5.9-6-13.3-9-22-9l-175.8.7c-7.6-.3-11.4-4.1-13-18.4L256.6 367s-2.2 16.4-13.9 16.7h-19.1v-.1h-7.8c-14 0-30.5 0-44.5.1h-19.1l-23.8-.1-60-.9c-7.2 0-13.3 1.9-18.3 5.5H50c-7.9 5.9-12 15-12 26.4 0 6.2 1.4 12 4.2 17.1l.1.1c2.5 4.4 6.6 8.9 12.1 13.4l.1.1c2.5 2 4.8 3.8 6.8 5.4l-5.1 1.2c-4.7 1.1-9.4 2.3-14 3.5l-6.1 1.6.4 6.3c.4 6.2 1.7 11.6 4 16.1 2.6 5.1 6.2 8.8 10.8 11.1 3.2 1.6 6.9 2.5 10.9 2.5 2.6 0 5.5-.4 8.4-1 0 0 247.8-58.1 492.5.5 2.6.6 5.1.9 7.5.9 5.7 0 10.8-1.7 15.1-5 6.4-4.8 9.8-12.1 9.8-21.1V414c.1-8.4-3-16-8.9-22z"/><path fill="#DFF2F3" d="M92.3 456.8c.1 6-1.7 11.5-5.4 16.5-2.4 3.4-5.8 6.2-10.1 8.4-2.3 1.2-5 2.1-8.1 2.9-5.7 1.3-10.4 1.1-14.2-.8-3.1-1.5-5.6-4.1-7.4-7.7-1.8-3.6-2.9-8-3.2-13.1 4.6-1.2 9.3-2.4 13.9-3.5.6 5.4 2.1 9.1 4.4 11.1 1.7 1.5 3.7 2 6 1.4 3.2-.7 5.7-2.7 7.7-5.9 1-1.6 1.5-3.6 1.5-6.2 0-3.7-1.8-7.1-5.4-10.4-2.9-2.2-7.2-5.4-13-10-4.8-4-8.3-7.8-10.3-11.3-2.2-4-3.3-8.5-3.3-13.4 0-8.9 3-15.7 9-20.2 3.7-2.7 8.3-4 13.7-4 5.3 0 9.7 1.1 13.5 3.2 2.9 1.6 5.2 3.9 7 6.8 1.8 2.9 2.8 6.2 3.2 10l-14.1 3c-.4-3.7-1.5-6.5-3.4-8.5-1.3-1.4-3.3-2.1-5.8-2.1-2.7.1-4.8 1.3-6.2 3.6-1.1 1.9-1.7 4.2-1.7 7 0 4.3 1.9 8.5 5.7 12.6 1.4 1.5 3.6 3.3 6.5 5.2 3.4 2.3 5.6 3.9 6.7 4.8 3.6 2.9 6.4 5.8 8.3 8.8.9 1.4 1.7 2.6 2.2 3.8 1.6 2.9 2.3 5.6 2.3 8zM120.3 447.2c-.1 8.6-.2 17.2-.2 25.8l-14.7 2.7c.2-28.1.4-56.2.7-84.3h14.7l-.3 29.1c6.1-10.1 12.2-19.8 18.3-29.1h15.7c-6.8 10.4-13.7 21.1-20.5 32.4 7.7 15.1 15.4 29.5 23.2 43.2-5.8.8-11.5 1.7-17.3 2.6-5-9.8-10.1-19.8-15.1-30.2l-4.5 7.8zM170.3 465.2c.3-24.6.5-49.2.8-73.8 14 0 28 0 42-.1 0 3.5-.1 7-.1 10.5-9.1.1-18.2.3-27.2.5-.1 6.5-.1 13.1-.2 19.6 6.6-.3 13.3-.7 19.9-.9 0 3.5-.1 7-.1 10.6-6.6.4-13.3.8-19.9 1.3-.1 6.5-.1 13.1-.2 19.6 9.1-.9 18.2-1.7 27.3-2.5 0 3.5-.1 7-.1 10.5-14.1 1.3-28.2 2.8-42.2 4.7zM264.1 456.8c-13.5.6-27 1.5-40.4 2.6l.6-68H239c-.2 19-.3 37.9-.5 56.9 8.5-.5 17-.9 25.6-1.3.1 3.3 0 6.5 0 9.8zM275.4 456.3l.3-65h42v9.7h-27.3c0 5.9 0 11.7-.1 17.6 6.7-.1 13.3-.1 20-.1v9.7c-6.7 0-13.3.1-20 .2 0 5.9 0 11.7-.1 17.6 9.1-.2 18.3-.3 27.4-.2v9.7c-14 .1-28.1.3-42.2.8zM344.7 401.1H329v-9.8h46c0 3.3 0 6.7.1 10-5.2 0-10.4-.1-15.6-.1l.3 55.2c-5-.2-9.9-.4-14.9-.5-.1-18.2-.2-36.5-.2-54.8zM409.5 390.5c6.5 0 12 1.6 16.6 4.9 4.6 3.3 6.9 7.3 7 12 .1 12.8.3 25.6.4 38.5 0 4.7-2.2 8.5-6.8 11.3-4.6 2.8-10.1 3.9-16.6 3.3-6.5-.6-12.1-2.6-16.7-6s-6.9-7.3-6.9-11.7l-.3-36.3c0-4.4 2.2-8.1 6.8-11.2 4.7-3.2 10.1-4.8 16.5-4.8zm8.2 16.3c0-1.7-.9-3.1-2.5-4.2-1.7-1.2-3.6-1.8-6-1.8-2.3 0-4.3.5-6 1.6-1.7 1.1-2.5 2.5-2.5 4.1l.3 37c0 1.6.9 3 2.5 4.3 1.7 1.2 3.7 2 6 2.1 2.3.2 4.3-.2 6-1.3 1.6-1 2.4-2.4 2.4-4 .1-12.6 0-25.2-.2-37.8zM463.5 391.4c6.7 16.6 13.4 33.8 20.1 51.8-.2-17.2-.4-34.5-.5-51.7h14.7c.3 26.4.5 52.9.8 79.3-5.3-.9-10.5-1.7-15.8-2.5-6.9-17.4-13.9-34.1-20.8-50.3.2 15.8.3 31.6.5 47.4-4.9-.7-9.8-1.3-14.8-1.9-.3-24-.5-48.1-.8-72.1h16.6zM527.5 476c-4.9-1-9.8-1.9-14.7-2.8-.2-27.2-.5-54.5-.7-81.7h14.7c.3 28.2.5 56.4.7 84.5zM564.7 485.1c-6.4-1.5-11.9-4.9-16.4-9.9-4.5-5-6.8-10.3-6.9-16.1l-.3-47.6c0-5.8 2.2-10.6 6.8-14.7 4.5-4.1 10.1-6.2 16.5-6.2 6.5 0 12 2.2 16.5 6.8s6.8 10.2 6.8 16.7v11.2c-5.1-.4-10.1-.9-15.2-1.3v-11c0-2.3-.8-4.2-2.5-5.9-1.7-1.7-3.7-2.5-6-2.6-2.3-.1-4.3.6-5.9 2.1-1.6 1.5-2.4 3.3-2.4 5.5.1 16.5.2 32.9.2 49.4 0 2.2.8 4.1 2.5 6 1.6 1.8 3.6 3 5.9 3.4 2.3.5 4.3.1 5.9-1.2 1.6-1.2 2.5-3 2.5-5.3v-13c5.1.8 10.1 1.6 15.1 2.4v13.7c0 6.5-2.3 11.5-6.8 14.9-4.6 3.4-10 4.2-16.3 2.7z"/><g fill="#639191"><path d="M486.2 443.2v-2.7c-2.2-.3-4.4-.6-6.6-.8.6 1.5 1.1 3 1.7 4.5l4.9-1zM80.1 459.8c0 3-.6 5.6-1.9 7.5-2.3 3.8-5.4 6.2-9.3 7.1-.8.2-1.6.3-2.4.3-2.2 0-4.1-.8-5.9-2.2-2.4-2-4.1-5.3-4.9-9.9-3 .7-6 1.5-9 2.3.4 3.9 1.3 7.3 2.7 10 1.6 3.1 3.6 5.3 6.3 6.6 1.8.9 3.9 1.4 6.3 1.4 1.8 0 3.9-.3 6.1-.8 2.9-.7 5.4-1.5 7.5-2.6 3.9-2 7-4.6 9.2-7.6 3.3-4.7 4.9-9.6 4.9-15 0-2.1-.7-4.4-1.9-7-.5-.9-1.1-2-1.8-3.1-3.9.6-7.7 1.3-11.2 1.9 3.6 3.4 5.3 7.1 5.3 11.1zM108 472.7c3.2-.6 6.4-1.2 9.5-1.8l.2-24.4.3-.6c.8-1.4 1.6-2.9 2.5-4.3-4.3.6-8.4 1.1-12.3 1.7l-.2 29.4zM141.3 466.8c3.9-.6 7.9-1.2 11.8-1.8-4.7-8.5-9.4-17.1-14-25.8-3.8.5-7.4.9-11 1.4 4.4 8.8 8.8 17.6 13.2 26.2zM172.9 462.3c12.3-1.6 24.7-3 37-4.2l.1-5.4c-8.1.7-16.4 1.4-24.5 2.2l-2.8.3.2-20.5c-3.3.3-6.5.6-9.6.9l-.4 26.7zM226.3 456.7c11.7-.9 23.6-1.7 35.3-2.3v-4.7c-7.6.3-15.3.7-22.8 1.2l-2.8.1.2-19.9c-3.3.2-6.5.3-9.7.5l-.2 25.1zM278 453.7c12.3-.4 24.8-.6 37.2-.6v-4.6c-8.2 0-16.6.1-24.8.3l-2.6.1.1-19.4c-3.3 0-6.5.1-9.7.2l-.2 24zM347.4 453.5c3.2.1 6.5.2 9.7.3l-.1-23.9c-3.2-.1-6.5-.2-9.7-.3l.1 23.9zM420.7 444.5c0 1.8-.6 4.3-3.6 6.2-1.8 1.1-3.9 1.7-6.3 1.7h-1.2c-2.8-.2-5.3-1.1-7.4-2.6-2.9-2.2-3.6-4.6-3.6-6.3l-.1-11.5c-3.1-.2-6.3-.4-9.4-.6l.1 11.3c0 3.5 2 6.7 5.9 9.7 4.2 3.1 9.3 5 15.4 5.5 1 .1 2.1.1 3 .1 4.7 0 8.6-1 12-3.1 3.8-2.3 5.6-5.3 5.5-9.1l-.1-11.5c-3.4-.3-6.9-.6-10.3-.9l.1 11.1z"/><path d="m486.2 443.2-5 .9c-.6-1.5-1.1-3-1.7-4.5-2-.2-4-.5-5.9-.7 3.8 9.1 7.5 18.1 11.1 27.1l11.4 1.8-.3-26.1c-3.2-.4-6.4-.9-9.6-1.3v2.8zM450.3 461.2l9.6 1.2-.3-25.2c-3.2-.4-6.4-.7-9.6-1l.3 25zM515.4 471.1c3.2.6 6.4 1.2 9.5 1.8l-.2-26.9-9.6-1.5.3 26.6zM585.2 456c-3.3-.5-6.7-1.1-10-1.6v.9c3.3.7 6.7 1.4 10 2.1V456z"/><path d="M575.1 455.3v9.1c0 3.1-1.2 5.6-3.5 7.3-1.6 1.2-3.5 1.9-5.7 1.9-.7 0-1.5-.1-2.3-.2-2.9-.6-5.3-2-7.3-4.2-2.1-2.3-3.1-4.9-3.1-7.7v-10.4c-3.1-.6-6.2-1.1-9.3-1.7l.1 9.8c0 5.1 2.1 9.8 6.2 14.4 4.2 4.7 9.3 7.7 15.1 9.1 1.8.4 3.5.6 5.1.6 3.4 0 6.4-1 9-2.9 3.8-2.9 5.7-7.2 5.7-12.9v-10.1c-3.3-.8-6.6-1.5-10-2.1z"/></g><g><path fill="#DFF2F3" d="M261.1 357.4c0-1.2 4.9-13.6 4.9-13.6l14.5 3.4 28.6 2.5 23.8-1.6 16.7-2.5 18.3 1.6 2.6 11.5 1.8 18.6-14.3-9.4-6-2.3v10.1l-9.9 9.9-1.1-16.7-3.4 1.4-3.4 7.3-4.8-10.8-3.7 9.6-6.9 6.6-3.1-11.9-2.1 6.9-3 5-5.1-11-2.6-5.3-3.8 1.6-2.1 9.6-3.8-9.4-2.1-.9-1.4 15.3-5.1-2.5-5.1-8.2-2.3-7.7-12.1 10-4.1.9.1-18z"/><path fill="#DFF2F3" d="m368 338 .4-20.7 12.6-6.7 35.7-6.4 10.1-18.3-6.1-19.9-8.2-21.1 8.2-24.1-1.8-62.9-20.8-44.3-46.7-25.1-58.3-2.8s-50.5 18.3-53.8 20.8c-3.2 2.4-24.6 37.9-24.6 37.9l-7 39.7 11.6 42.7-1.2 21.2-7 17.4-1.8 22.3 11 14.4 24.1 9.5 15.4 4.4 3.6 16.4 2.5 11.5-.4 1 26.7 2.8 27.1 3.1 32.4-4.7 13.9-1.8-.1-.2 2.5-6.1z"/><path fill="#639191" d="M346.1 329.3s-2.7 10.5-9.5 12.6l9.5 4 14.4-2.1 7.4-9.3-3-15.2-6.6 2.3-12.2 7.7zM367.1 296.3s52.6 8.3 52.6-18l4.3 3.7-6.5 17.9-28 12.1-33.2-4.4 10.8-11.3zM285.7 329.3s2.7 10.5 9.5 12.6l-9.5 4-14.4-2.1-7.4-9.3 3-15.2 6.6 2.3 12.2 7.7zM247.3 136.8s-36.2 25-32.2 55.5l-1.5 17.2 5.3 6.4 19-15.4-6-27.5c0 .1 4.5-22.7 15.4-36.2zM263.4 167.9s-15.2 8.5-19.4 34.3l15.4 11.9-2.3-28.2s3.1-11.5 6.3-18zM384.1 136.8s36.2 25 32.2 55.5l1.5 17.2-5.3 6.4-19-15.4 6-27.5c0 .1-4.4-22.7-15.4-36.2zM368 167.9s15.2 8.5 19.4 34.3L372 214.1l2.3-28.2s-3.1-11.5-6.3-18z"/><path fill="#071D23" d="M297.1 237.8s-4.9 5.4-29.5-4.6c-23.4-9.5-31.7-7.6-33.9.5-2.2 8.2-15.7 53.9 23.5 53.9 47 0 39-46.5 39.9-49.8"/><path fill="#639191" d="M239.3 263.9s10.6 14.6 30.7 13.7c0 0-16.3 6.5-23.7 1.3-7.3-5.2-7-15-7-15z"/><path fill="#071D23" d="M313.6 267.1s.4-4.1-5.6-4.1-2.8 6.7-9.6 19.1c-6.9 12.4-9.8 36.5.7 37.2 10.6.7 15.7-18.7 14.5-52.2z"/><path fill="#639191" d="M264.7 296.3s-52.6 8.3-52.6-18l-4.3 3.7 6.5 17.9 28 12.1 33.2-4.4-10.8-11.3zM308 299.8s-7.4 15.9-12.2 8c0 0 .5 9.8 6.2 7.8 5.8-2.1 6-15.8 6-15.8z"/><path fill="#071D23" d="M334.4 237.8s4.9 5.4 29.5-4.6c23.4-9.5 31.7-7.6 33.9.5 2.2 8.2 15.7 53.9-23.5 53.9-47 0-39-46.5-39.9-49.8"/><path fill="#639191" d="M392.1 263.9s-10.6 14.6-30.7 13.7c0 0 16.3 6.5 23.7 1.3 7.4-5.2 7-15 7-15z"/><path fill="#071D23" d="M325.8 246.3c-.4-5.7-6.7-9.8-6.7-9.8.4-5.9-3.4-18.3-3.4-18.3v.7-.7s-3.8 12.4-3.4 18.3c0 0-6.3 4.1-6.7 9.8 0 0 4.3-4 10.1-4.1 5.8.1 10.1 4.1 10.1 4.1zM317.9 267.1s-.4-4.1 5.6-4.1c5.9 0 2.8 6.7 9.6 19.1 6.9 12.4 9.8 36.5-.7 37.2-10.6.7-15.7-18.7-14.5-52.2z"/><path fill="#639191" d="M323.4 299.8s7.4 15.9 12.2 8c0 0-.5 9.8-6.2 7.8-5.8-2.1-6-15.8-6-15.8zM281 357.3s2.3 9.4 6.8 13.1c1.1.9 1.7 1.4 1.9 1.6.6.7-1.9-1-1.9-1l.6 11.9-6.4-7.3-2.5-10.1M273.2 352.2s-2 6.5-8.9 11.5l-3.3 11.7 13.3-8.5 3-10.5M293 357.3s2.3 7.5 4.7 8.2l1.3 8-1.9 1.8-4.9-9M304.5 360s2 7.3 6.4 8c0 0 1.9 3.7 1.9 4.4 0 .7-1.1 9.9-1.1 9.9l-9.7-15.9-2.9-7.7M350.4 357.3s-2.3 9.4-6.8 13.1c-1.1.9-1.7 1.4-1.9 1.6-.6.7 1.9-1 1.9-1l-.6 12 6.4-7.3 2.5-10.1M358.2 352.2s2 6.5 8.9 11.5l3.3 11.7-13.3-8.5-3-10.5M338.5 357.3s-2.3 7.5-4.7 8.2l-1.3 8 1.9 1.8 4.9-9M327 360s-2 7.3-6.4 8c0 0-1.9 3.7-1.9 4.4 0 .7 1.1 9.9 1.1 9.9l9.7-15.9 2.9-7.7"/><path fill="#071D23" d="M428.1 268.2c-15.5-32.4-9.8-24.6-4.3-40.7l-.2-.1c.5-1.3 8.3-23.4 4-57.9-4.4-35.2-24.5-92.6-110.5-93.8h-3c-85.9 1.2-106 58.6-110.4 93.8-4.4 35.6 4 58 4 58h.1c5.6 16.1 11.2 8.4-4.2 40.7-16.1 33.7 21 45.6 38.5 46.9 10.4.7 18.5 1.3 17.2 10.6-1.1 7.8 1.8 14.8 2.7 16.8-3.1 2.6-5 6.9-4.9 14.1.2 10.9-3.5 23.5-6.7 27.2 0 0 14.8-.4 25.6-13.7.2-.3.4-.5.6-.8 1.4 6.4 4.3 13 13.6 18.8 0 0 2.1-4.5 2.1-16.8 1.5 4.2 3.5 8.2 6.3 11.3 0 0 1.8-4.4 2.6-11.5 4.3 15 12.6 17.1 12.6 17.1 1-1.4 1.6-5.3 2-10.1.3 4.8.9 8.7 2 10.1 0 0 8.2-2.1 12.6-17.1.8 7.2 2.6 11.5 2.6 11.5 2.8-3 4.8-7 6.3-11.3-.1 12.3 2.1 16.8 2.1 16.8 9.3-5.8 12.3-12.3 13.6-18.8.2.3.4.5.6.8 10.7 13.3 25.6 13.7 25.6 13.7-2.6-3.8-5.2-16.5-6.7-27.2-1-7-1.8-11.4-4.8-13.9.8-1.8 3.9-9 2.8-17-1.3-9.3 6.9-9.8 17.2-10.6 17.4-1.3 54.5-13.2 38.4-46.9zm-157.8 96.6c-2.3 2.9-4.8 4.9-7.3 6.3 1.1-4.6 1.7-9.7 1.6-14.3-.1-3 .4-5.3 1.4-6.7.4-.6 1.2-1.4 3.2-2 .3-.1.6-.1.8-.1.7 0 1.5.4 2.1.8 1.3 2.9 3.3 9.7-1.8 16zm17.4 15.4c-4-4.8-4.7-9.9-5.4-15.6-.3-2.4-.6-4.9-1.2-7.4-.9-3.9-1-6.1-.9-7.2.8-.3 1.5-.5 2.1-.5 1.9 0 3.3 1.7 3.7 2.4 2 13.6 2.1 22.7 1.7 28.3zm9.2-7.5c-3.1-7.7-4.1-14.7-4.3-20.5l.1.1s-.1-1.4.9-1.9l1.2-.1c1.3.2 1.6 1.2 1.6 1.2 2.3 9.1 1.3 15.3.5 21.2zm14-7c0 5.8-.2 9.9-.5 12.8-.2-.3-.5-.7-.7-1.1-2.4-3.9-5.2-11-5.7-23.4 0-.1 0-1.8 1.1-2.5l2.4-.3c1.8.2 3.3.8 3.3 2.2 0 3.2.1 7.6.1 12.3zm10.9 11.7c-.2.4-.5.8-.7 1.1-.2-2.9-.4-7-.5-12.8 0-4.7 0-9.1.1-12.3 0-1.5 1.5-2 3.3-2.2.8.1 1.6.1 2.4.3 1.1.7 1.1 2.4 1.1 2.5-.5 12.4-3.3 19.5-5.7 23.4zm12.8-4.7c-.8-5.9-1.8-12 .6-21.3 0 0 .2-1 1.6-1.2l1.2.1c1 .5.9 1.9.9 1.9l.1-.1c-.4 5.8-1.4 12.8-4.4 20.6zm15.8-15.4c-.6 2.5-.9 5-1.2 7.4-.7 5.7-1.4 10.8-5.4 15.6-.4-5.7-.3-14.7 1.7-28.2.5-.7 1.9-2.4 3.7-2.4.6 0 1.3.2 2.1.5.1 1 .1 3.2-.9 7.1zm10.8 7.5c-5.1-6.3-3.1-13.2-1.9-16 .7-.4 1.4-.8 2.1-.8.3 0 .5 0 .8.1 2 .6 2.7 1.4 3.2 2 1 1.4 1.4 3.7 1.4 6.7-.1 4.6.6 9.6 1.6 14.3-2.3-1.4-4.9-3.4-7.2-6.3zm53.9-72.2c-6.9 8.5-33.7 21.1-51.7 14.8 0 0-.2-6.5 3.5-11.1 0 0-11.7-2.6-18.5 23.7 0 0-2 8.5-3.7 13.1 0 0 4.3 1.5 9.6-2.4 5.4-3.9 6.3-5.2 9.4-5.6 0 0 .2 9.9-2.1 14.1-4.5-.3-7.4 2.6-8.2 2.8-1.2-.4-2.3-.6-3.4-.5h-.6c-1 .1-1.9.4-2.8.7-1.4.4-2.6.9-2.6.9s-9.3-3.8-3.2-22.5c0 0-6.9 6-8.2 23.3-2.1 0-4.2.2-6.3.6-1.5-2.3-2.2-7 1.2-16.8 0 0-8.7 6.3-8.2 18.4-1.7.4-3.1 1.1-3.6 2.4-.3-.6-.8-1.1-1.4-1.5h-.1c-.6-.4-1.3-.6-2.1-.8h-.1c.5-12-8.2-18.4-8.2-18.4 3.3 9.5 2.7 14.3 1.3 16.6-2.1-.4-4.3-.5-6.4-.4-1.3-17.3-8.2-23.4-8.2-23.4 6.1 18.7-3.2 22.5-3.2 22.5s-1.3-.5-2.7-.9c-.8-.4-1.7-.6-2.7-.7-.2 0-.4-.1-.6 0-1 0-2.2.1-3.4.5-.8-.1-3.6-2.9-8-2.8-2.3-4.2-2.1-14-2.1-14 3.1.4 4.1 1.7 9.4 5.6 5.4 3.9 9.6 2.4 9.6 2.4-1.7-4.6-3.7-13.1-3.7-13.1-6.9-26.3-18.5-23.7-18.5-23.7 3.7 4.6 3.5 11.1 3.5 11.1-18 6.3-44.8-6.3-51.7-14.8-6.9-8.5-5.3-22.5.7-32.2 4.5-7.3 6.1-18.7 6.9-26.7.7-8 .1-12.1 1.6-15.7 7.4-17.5 22.3 3.9 46.9 9.3 24.6 5.4 29.8-2.6 28.3-14.4-1.5-11.9-11.1-13.3-11.1-13.3 4.8 6.9 4.1 13.7 4.1 13.7-2.1 12.1-22.2 1.3-22.2 1.3-18.6-9.3-8.3-46.5-8.3-46.5-12.1 12-12.4 31.1-12.1 37.4-7.2-6.8-14.7-21.2-14.7-30.7 0-22.2 10.7-37.8 10.7-37.8-6.5 3.7-24.3 23.3-19.6 47.5.7 3.5 1.8 9.6-1.6 12.5-3.1 2.6-6.8 2-9.3 7.9-4-22.7-5.3-55.3 16.3-82.2 24.9-31 69.5-32.4 81.1-32.2v.1s.7 0 1.5-.1c.9 0 1.5.1 1.5.1v-.1c11.6-.2 56.3 1.2 81.2 32.2 21.5 26.7 20.4 59.2 16.4 81.8-2.5-5.5-6.2-5-9.2-7.5-3.4-2.9-2.3-9-1.6-12.5 4.7-24.2-13.1-43.7-19.6-47.5 0 0 10.7 15.6 10.7 37.8 0 9.6-7.5 23.9-14.7 30.7.3-6.3-.1-25.4-12.1-37.4 0 0 10.3 37.3-8.3 46.5 0 0-20.1 10.8-22.2-1.3 0 0-.7-6.8 4.1-13.7 0 0-9.6 1.5-11.1 13.3-1.5 11.9 3.7 19.8 28.3 14.4s39.5-26.7 46.9-9.3c1.5 3.6.9 7.8 1.6 15.7.7 8 2.4 19.4 6.9 26.7 6 9.6 7.6 23.6.7 32.1z"/></g></svg>