<svg version="1.0" xmlns="http://www.w3.org/2000/svg" viewBox="0 0 652 575" xml:space="preserve"><path fill="#5F3594" d="M56.3 486c-8.1 0-15.3-7.1-15.3-15.3v-152c0-8.1 7.1-15.3 15.3-15.3h87.4c8.4 0 15.3 6.8 15.3 15.3v152.1c0 8.4-6.8 15.3-15.3 15.3H56.3zm81.8-36.9V329.6H61.8v119.5h76.3z"/><path fill="#FFF" d="M143.6 308.4c5.4 0 10.3 4.3 10.3 10.3v152.1c0 5.4-4.3 10.3-10.3 10.3H56.3c-5.4 0-10.3-4.9-10.3-10.3V318.7c0-5.4 4.9-10.3 10.3-10.3h87.3M56.8 454.1h86.3V324.6H56.8v129.5m42.1 17.8c2.7 0 4.3-1.6 4.3-4.3 0-2.7-1.6-4.3-4.3-4.3-2.7 0-4.3 2.2-4.3 4.3-.1 2.6 2.1 4.3 4.3 4.3m44.7-173.5H56.3c-11 0-20.3 9.3-20.3 20.3v152.1c0 11 9.3 20.3 20.3 20.3h87.4c11.2 0 20.3-9.1 20.3-20.3V318.7c-.1-11.2-9.2-20.3-20.4-20.3zm-76.8 36.2h66.3v109.5H66.8V334.6z"/><path fill="#5F3594" d="M89 291.6c-2.8 0-5-2.2-5-5V131.2c0-20.1 16.4-36.5 36.5-36.5h353.2c20.1 0 36.5 16.4 36.5 36.5v85.3c0 2.8-2.2 5-5 5h-21.9c-2.8 0-5-2.2-5-5v-85.3c0-2.6-2.1-4.7-4.7-4.7H120.5c-2.6 0-4.7 2.1-4.7 4.7v155.4c0 1.3-.5 2.6-1.5 3.5-.9.9-2.2 1.5-3.5 1.5H89z"/><path fill="#FFF" d="M473.7 99.6c17.4 0 31.5 14.2 31.5 31.5v85.3h-21.9v-85.3c0-5.3-4.3-9.7-9.7-9.7H120.5c-5.3 0-9.7 4.3-9.7 9.7v155.4H89V131.2c0-17.4 14.1-31.5 31.5-31.5l353.2-.1m0-10H120.5c-22.9 0-41.5 18.6-41.5 41.5v155.4c0 5.5 4.5 10 10 10h21.9c2.7 0 5.2-1.1 7.1-2.9 1.9-1.9 2.9-4.4 2.9-7.1V131.4h352.5v85c0 5.5 4.5 10 10 10h21.9c5.5 0 10-4.5 10-10v-85.3c-.1-22.8-18.7-41.5-41.6-41.5z"/><path fill="#5F3594" d="M435.5 486c-12 0-21.7-9.7-21.7-21.7V255c0-12 9.7-21.7 21.7-21.7h133.8c12 0 21.7 9.7 21.7 21.7v209.3c0 12-9.7 21.7-21.7 21.7H435.5zm127.7-42.3V264.9H440v178.8h123.2z"/><path fill="#FFF" d="M569.3 238.3c9.2 0 16.7 7.6 16.7 16.7v209.3c0 9.2-7.6 16.7-16.7 16.7H435.5c-9.2 0-16.7-7.6-16.7-16.7V255c0-9.2 7.6-16.7 16.7-16.7h133.8M435 448.7h133.3V259.9H435v188.8m67.9 22.1c2.2 0 4.3-2.2 4.3-4.3 0-2.7-2.2-4.3-4.3-4.3-2.7 0-4.3 2.2-4.3 4.3 0 2.7 2.2 4.3 4.3 4.3m66.4-242.5H435.5c-14.7 0-26.7 12-26.7 26.7v209.3c0 14.7 12 26.7 26.7 26.7h133.8c14.7 0 26.7-12 26.7-26.7V255c0-14.7-12-26.7-26.7-26.7zM445 269.9h113.3v168.8H445V269.9z"/><g><path fill="#5F3594" d="M186.2 460.7c-8.4 0-15.2-6.8-15.2-15.2 0-8.4 6.8-15.2 15.2-15.2h39.3l11.3-32.3c.7-2 2.6-3.3 4.7-3.3h111.2c2.1 0 4 1.3 4.7 3.3l11.4 32.3H397c2.8 0 5 2.2 5 5v20.4c0 2.8-2.2 5-5 5H186.2z"/><path fill="#FFF" d="m352.7 399.6 12.5 35.6h31.7v20.4H186.2c-5.7 0-10.2-4.6-10.2-10.2 0-5.7 4.6-10.2 10.2-10.2H229l12.5-35.6h111.2m0-10H241.5c-4.2 0-8 2.7-9.4 6.7L222 425.2h-35.8c-11.2 0-20.2 9.1-20.2 20.2s9.1 20.2 20.2 20.2H397c5.5 0 10-4.5 10-10v-20.4c0-5.5-4.5-10-10-10h-24.6l-10.2-28.9c-1.5-4-5.2-6.7-9.5-6.7z"/></g><g><path fill="#5F3594" d="M175.8 390.1c-2.8 0-5-2.2-5-5V318.7c0-.3-.1-.7-.1-1-.1-1.4.4-2.7 1.4-3.7s2.3-1.6 3.6-1.6H397c2.8 0 5 2.2 5 5v67.7c0 2.8-2.2 5-5 5H175.8zm120.3-46.4c-4.2 0-7.6 3.4-7.6 7.6s3.4 7.6 7.6 7.6 7.6-3.4 7.6-7.6-3.4-7.6-7.6-7.6z"/><path fill="#FFF" d="M396.9 317.4v67.7H175.8v-66.5c0-.4-.1-.8-.1-1.2h221.2m-100.8 46.5c6.9 0 12.6-5.6 12.6-12.6 0-6.9-5.6-12.6-12.6-12.6-6.9 0-12.6 5.7-12.6 12.6 0 6.9 5.7 12.6 12.6 12.6m100.8-56.5H175.6c-2.7 0-5.4 1.1-7.2 3.1-1.9 2-2.9 4.7-2.7 7.4 0 .5.1.9.1 1.2v66c0 5.5 4.5 10 10 10H397c5.5 0 10-4.5 10-10v-67.7c-.1-5.5-4.6-10-10.1-10zm-100.8 46.5c-1.4 0-2.6-1.2-2.6-2.6 0-1.4 1.2-2.6 2.6-2.6 1.4 0 2.6 1.2 2.6 2.6s-1.2 2.6-2.6 2.6z"/></g></svg>