<svg xmlns="http://www.w3.org/2000/svg" viewBox="0 0 583.6 533.9" style="enable-background:new 0 0 583.6 533.9" xml:space="preserve"><style>.st0{display:none}.st1{fill:#e4d7ea}.st1,.st2{display:inline}.st3{fill:#ed2480}.st4{clip-path:url(#XMLID_7_)}.st5{fill:#f4792c}.st6{clip-path:url(#XMLID_9_)}.st7{fill:#be3894}.st8{fill:#5986c5}.st10{fill:#f5982d}.st11{clip-path:url(#XMLID_11_)}.st12{fill:#ed1c80}.st13{fill:#725ba7}.st15{fill:#5f3494}.st16{fill:#fff}.st17{fill:#784ea0}.st18{fill:#dce9f7}.st19{fill:#967db9}.st20{fill:#c3acd3}.st21{fill:#a5def5}.st25{display:inline}.st25,.st26{fill:#5397d1}.st27{fill:#4661ad}.st28{fill:#add8f4}.st29{fill:#a8dee9}.st30{fill:#79d1f1}.st31{fill:#f49bc2}.st32{fill:#89c1e9}.st33{fill:#5a71b6}.st35{clip-path:url(#XMLID_12_)}.st36{fill:#f174ac}.st37{clip-path:url(#XMLID_13_)}.st38{fill:#704b9e}.st40{clip-path:url(#XMLID_16_)}.st42{clip-path:url(#XMLID_18_)}.st43{fill:#8090c8}.st44{fill:#f6a9ca}.st46{fill:#88c0e8}.st49{fill:#7e61aa}.st51{fill:#354ea2}.st52{fill:#8580bd}.st53{fill:#6867af}.st54{fill:#403b97}.st55{fill:#dfe6f4}.st56{fill:#3e439b}.st57{clip-path:url(#XMLID_19_)}.st58{fill:#718bc6}.st59{clip-path:url(#XMLID_20_)}.st60{clip-path:url(#XMLID_21_)}.st61{fill:#76a5d8}.st62{clip-path:url(#XMLID_22_)}.st64{display:inline;fill:#7e61aa}.st66{fill:#f170ab}.st67{clip-path:url(#XMLID_24_)}.st68{fill:#b295c6}.st69{fill:#d1bbdb}.st70{fill:#f2a0c5}.st71{fill:#c1a9d1}.st72{fill:#d7eff4}.st73{fill:#38c6f4}.st74{fill:#47c2ca}.st75{fill:#775ea8}.st77{fill:#d6effc}.st78{fill:#ccb6d8}.st79{fill:#4a75ba}.st82,.st83,.st84{fill:#5f3494;stroke:#663695;stroke-width:3;stroke-miterlimit:10}.st83,.st84{fill:#725ba7}.st84{fill:#ccb6d8}</style><path d="M400.1 184.7c2.7 4.8 2.7 10.7 0 15.5l-190 312.5c-2.9 4.6-7.9 7.3-13.3 7.4-2.4-.1-4.6-.6-6.8-1.5-7.1-3.5-10.4-11.8-7.7-19.2l87.2-242.6-72.4 1.5c-5.1.2-9.9-2.3-12.7-6.5-3.1-3.9-3.9-9.2-2.2-13.9l73.3-213.5c2.2-6.2 8-10.4 14.5-10.5h116.6c5.5 0 10.6 2.9 13.3 7.6 2.8 4.7 2.9 10.5.3 15.3l-77.7 139.8h63.4c6.1-.3 11.5 2.9 14.2 8.1z" style="fill:#f5d72c;stroke:#fff;stroke-width:10;stroke-miterlimit:10" id="thunder.svg"/></svg>